# MagicaVoxel @ Ephtracy

# material
mtllib blastboost.mtl
usemtl palette

# normals
vn -1 0 0
vn 1 0 0
vn 0 0 1
vn 0 0 -1
vn 0 -1 0
vn 0 1 0

# texcoords
vt 0.00195312 0.5
vt 0.0605469 0.5
vt 0.466797 0.5
vt 0.849609 0.5
vt 0.943359 0.5

# verts
v -2 0 6
v -2 0 4
v -2 0 -4
v -2 0 -6
v -2 1 8
v -2 1 6
v -2 1 4
v -2 1 -4
v -2 1 -6
v -2 1 -8
v -2 2 9
v -2 2 8
v -2 2 7
v -2 2 6
v -2 2 -6
v -2 2 -7
v -2 2 -8
v -2 2 -9
v -2 3 8
v -2 3 7
v -2 3 3
v -2 3 -3
v -2 3 -7
v -2 3 -8
v -2 4 10
v -2 4 9
v -2 4 8
v -2 4 4
v -2 4 3
v -2 4 2
v -2 4 -3
v -2 4 -4
v -2 4 -8
v -2 4 -9
v -2 4 -10
v -2 5 5
v -2 5 4
v -2 5 3
v -2 5 2
v -2 5 -4
v -2 5 -5
v -2 6 10
v -2 6 9
v -2 6 4
v -2 6 3
v -2 6 -3
v -2 6 -4
v -2 6 -9
v -2 6 -10
v -2 8 3
v -2 8 2
v -2 10 3
v -2 10 2
v -2 10 1
v -2 11 4
v -2 11 3
v -2 11 2
v -2 11 1
v -2 11 -0
v -2 11 -3
v -2 11 -4
v -2 12 5
v -2 12 4
v -2 12 3
v -2 12 2
v -2 12 1
v -2 12 -0
v -2 12 -2
v -2 12 -3
v -2 12 -4
v -2 12 -5
v -2 13 4
v -2 13 3
v -2 13 2
v -2 13 1
v -2 13 -1
v -2 13 -2
v -2 13 -3
v -2 13 -4
v -2 14 10
v -2 14 9
v -2 14 3
v -2 14 2
v -2 14 1
v -2 14 -0
v -2 14 -2
v -2 14 -3
v -2 14 -9
v -2 14 -10
v -2 15 3
v -2 15 2
v -2 15 1
v -2 15 -0
v -2 15 -1
v -2 15 -3
v -2 15 -4
v -2 16 10
v -2 16 9
v -2 16 8
v -2 16 1
v -2 16 -0
v -2 16 -4
v -2 16 -5
v -2 16 -8
v -2 16 -9
v -2 16 -10
v -2 17 8
v -2 17 7
v -2 17 -0
v -2 17 -1
v -2 17 -7
v -2 17 -8
v -2 18 9
v -2 18 8
v -2 18 7
v -2 18 6
v -2 18 -0
v -2 18 -1
v -2 18 -2
v -2 18 -3
v -2 18 -6
v -2 18 -7
v -2 18 -8
v -2 18 -9
v -2 19 8
v -2 19 6
v -2 19 4
v -2 19 -2
v -2 19 -3
v -2 19 -4
v -2 19 -5
v -2 19 -6
v -2 19 -8
v -2 20 6
v -2 20 4
v -2 20 -4
v -2 20 -6
v 2 0 6
v 2 0 4
v 2 0 -4
v 2 0 -6
v 2 1 8
v 2 1 6
v 2 1 4
v 2 1 -4
v 2 1 -6
v 2 1 -8
v 2 2 9
v 2 2 8
v 2 2 7
v 2 2 6
v 2 2 -6
v 2 2 -7
v 2 2 -8
v 2 2 -9
v 2 3 8
v 2 3 7
v 2 3 3
v 2 3 -3
v 2 3 -7
v 2 3 -8
v 2 4 10
v 2 4 9
v 2 4 8
v 2 4 4
v 2 4 3
v 2 4 2
v 2 4 -3
v 2 4 -4
v 2 4 -8
v 2 4 -9
v 2 4 -10
v 2 5 5
v 2 5 4
v 2 5 3
v 2 5 2
v 2 5 -4
v 2 5 -5
v 2 6 10
v 2 6 9
v 2 6 4
v 2 6 3
v 2 6 -3
v 2 6 -4
v 2 6 -9
v 2 6 -10
v 2 8 3
v 2 8 2
v 2 10 3
v 2 10 2
v 2 10 1
v 2 11 4
v 2 11 3
v 2 11 2
v 2 11 1
v 2 11 -0
v 2 11 -3
v 2 11 -4
v 2 12 5
v 2 12 4
v 2 12 3
v 2 12 2
v 2 12 1
v 2 12 -0
v 2 12 -2
v 2 12 -3
v 2 12 -4
v 2 12 -5
v 2 13 4
v 2 13 3
v 2 13 2
v 2 13 1
v 2 13 -1
v 2 13 -2
v 2 13 -3
v 2 13 -4
v 2 14 10
v 2 14 9
v 2 14 3
v 2 14 2
v 2 14 1
v 2 14 -0
v 2 14 -2
v 2 14 -3
v 2 14 -9
v 2 14 -10
v 2 15 3
v 2 15 2
v 2 15 1
v 2 15 -0
v 2 15 -1
v 2 15 -3
v 2 15 -4
v 2 16 10
v 2 16 9
v 2 16 8
v 2 16 1
v 2 16 -0
v 2 16 -4
v 2 16 -5
v 2 16 -8
v 2 16 -9
v 2 16 -10
v 2 17 8
v 2 17 7
v 2 17 -0
v 2 17 -1
v 2 17 -7
v 2 17 -8
v 2 18 9
v 2 18 8
v 2 18 7
v 2 18 6
v 2 18 -0
v 2 18 -1
v 2 18 -2
v 2 18 -3
v 2 18 -6
v 2 18 -7
v 2 18 -8
v 2 18 -9
v 2 19 8
v 2 19 6
v 2 19 4
v 2 19 -2
v 2 19 -3
v 2 19 -4
v 2 19 -5
v 2 19 -6
v 2 19 -8
v 2 20 6
v 2 20 4
v 2 20 -4
v 2 20 -6
v -2 4 10
v -2 6 10
v -2 14 10
v -2 16 10
v -1 6 10
v -1 14 10
v 1 6 10
v 1 14 10
v 2 4 10
v 2 6 10
v 2 14 10
v 2 16 10
v -2 2 9
v -2 4 9
v -2 16 9
v -2 18 9
v 2 2 9
v 2 4 9
v 2 16 9
v 2 18 9
v -2 1 8
v -2 2 8
v -2 18 8
v -2 19 8
v 2 1 8
v 2 2 8
v 2 18 8
v 2 19 8
v -2 0 6
v -2 1 6
v -2 19 6
v -2 20 6
v 2 0 6
v 2 1 6
v 2 19 6
v 2 20 6
v -2 0 -6
v -2 1 -6
v -2 19 -6
v -2 20 -6
v 2 0 -6
v 2 1 -6
v 2 19 -6
v 2 20 -6
v -2 1 -8
v -2 2 -8
v -2 18 -8
v -2 19 -8
v 2 1 -8
v 2 2 -8
v 2 18 -8
v 2 19 -8
v -2 2 -9
v -2 4 -9
v -2 16 -9
v -2 18 -9
v 2 2 -9
v 2 4 -9
v 2 16 -9
v 2 18 -9
v -2 4 -10
v -2 6 -10
v -2 14 -10
v -2 16 -10
v -1 6 -10
v -1 14 -10
v 1 6 -10
v 1 14 -10
v 2 4 -10
v 2 6 -10
v 2 14 -10
v 2 16 -10
v -2 0 6
v 2 0 6
v -2 0 4
v -1 0 4
v 1 0 4
v 2 0 4
v -2 0 -4
v -1 0 -4
v 1 0 -4
v 2 0 -4
v -2 0 -6
v 2 0 -6
v -2 1 8
v 2 1 8
v -2 1 6
v 2 1 6
v -2 1 -6
v 2 1 -6
v -2 1 -8
v 2 1 -8
v -2 2 9
v 2 2 9
v -2 2 8
v 2 2 8
v -2 2 -8
v 2 2 -8
v -2 2 -9
v 2 2 -9
v -2 4 10
v 2 4 10
v -2 4 9
v 2 4 9
v -2 4 -9
v 2 4 -9
v -2 4 -10
v 2 4 -10
v -2 16 10
v 2 16 10
v -2 16 9
v 2 16 9
v -2 16 -9
v 2 16 -9
v -2 16 -10
v 2 16 -10
v -2 18 9
v 2 18 9
v -2 18 8
v 2 18 8
v -2 18 -8
v 2 18 -8
v -2 18 -9
v 2 18 -9
v -2 19 8
v 2 19 8
v -2 19 6
v 2 19 6
v -2 19 -6
v 2 19 -6
v -2 19 -8
v 2 19 -8
v -2 20 6
v 2 20 6
v -2 20 4
v -1 20 4
v 1 20 4
v 2 20 4
v -2 20 -4
v -1 20 -4
v 1 20 -4
v 2 20 -4
v -2 20 -6
v 2 20 -6

# faces
f 6/2/1 2/2/1 1/2/1
f 7/1/1 3/1/1 2/1/1
f 7/2/1 2/2/1 6/2/1
f 8/2/1 4/2/1 3/2/1
f 8/1/1 3/1/1 7/1/1
f 9/2/1 4/2/1 8/2/1
f 12/2/1 6/2/1 5/2/1
f 13/2/1 6/2/1 12/2/1
f 14/1/1 7/1/1 6/1/1
f 14/2/1 6/2/1 13/2/1
f 14/1/1 8/1/1 7/1/1
f 14/1/1 9/1/1 8/1/1
f 15/2/1 10/2/1 9/2/1
f 15/1/1 9/1/1 14/1/1
f 16/2/1 10/2/1 15/2/1
f 17/2/1 10/2/1 16/2/1
f 19/2/1 13/2/1 12/2/1
f 19/2/1 12/2/1 11/2/1
f 20/1/1 14/1/1 13/1/1
f 20/2/1 13/2/1 19/2/1
f 20/1/1 15/1/1 14/1/1
f 20/1/1 16/1/1 15/1/1
f 21/1/1 16/1/1 20/1/1
f 22/1/1 16/1/1 21/1/1
f 23/2/1 18/2/1 17/2/1
f 23/1/1 16/1/1 22/1/1
f 23/2/1 17/2/1 16/2/1
f 24/2/1 18/2/1 23/2/1
f 26/2/1 19/2/1 11/2/1
f 27/1/1 21/1/1 20/1/1
f 27/1/1 20/1/1 19/1/1
f 27/2/1 19/2/1 26/2/1
f 28/1/1 21/1/1 27/1/1
f 29/5/1 22/5/1 21/5/1
f 29/1/1 21/1/1 28/1/1
f 30/5/1 22/5/1 29/5/1
f 31/1/1 23/1/1 22/1/1
f 31/5/1 22/5/1 30/5/1
f 31/1/1 24/1/1 23/1/1
f 32/1/1 24/1/1 31/1/1
f 33/2/1 18/2/1 24/2/1
f 33/1/1 24/1/1 32/1/1
f 34/2/1 18/2/1 33/2/1
f 36/1/1 28/1/1 27/1/1
f 36/1/1 27/1/1 26/1/1
f 37/5/1 30/5/1 29/5/1
f 37/1/1 28/1/1 36/1/1
f 37/5/1 29/5/1 28/5/1
f 38/5/1 30/5/1 37/5/1
f 39/4/1 31/4/1 30/4/1
f 39/5/1 30/5/1 38/5/1
f 40/5/1 32/5/1 31/5/1
f 40/1/1 33/1/1 32/1/1
f 40/1/1 34/1/1 33/1/1
f 41/1/1 34/1/1 40/1/1
f 42/2/1 26/2/1 25/2/1
f 43/1/1 36/1/1 26/1/1
f 43/2/1 26/2/1 42/2/1
f 44/5/1 37/5/1 36/5/1
f 44/5/1 38/5/1 37/5/1
f 45/4/1 39/4/1 38/4/1
f 45/5/1 38/5/1 44/5/1
f 46/4/1 31/4/1 39/4/1
f 46/4/1 39/4/1 45/4/1
f 46/5/1 40/5/1 31/5/1
f 46/5/1 41/5/1 40/5/1
f 47/5/1 41/5/1 46/5/1
f 48/2/1 35/2/1 34/2/1
f 48/1/1 34/1/1 41/1/1
f 49/2/1 35/2/1 48/2/1
f 50/4/1 45/4/1 44/4/1
f 50/4/1 47/4/1 46/4/1
f 50/4/1 46/4/1 45/4/1
f 51/4/1 47/4/1 50/4/1
f 52/4/1 50/4/1 44/4/1
f 52/3/1 51/3/1 50/3/1
f 53/4/1 47/4/1 51/4/1
f 53/3/1 51/3/1 52/3/1
f 54/4/1 47/4/1 53/4/1
f 55/5/1 44/5/1 36/5/1
f 55/4/1 52/4/1 44/4/1
f 55/4/1 53/4/1 52/4/1
f 56/4/1 53/4/1 55/4/1
f 57/3/1 54/3/1 53/3/1
f 57/4/1 53/4/1 56/4/1
f 58/4/1 47/4/1 54/4/1
f 58/3/1 54/3/1 57/3/1
f 59/4/1 47/4/1 58/4/1
f 60/4/1 47/4/1 59/4/1
f 61/5/1 41/5/1 47/5/1
f 61/4/1 47/4/1 60/4/1
f 62/1/1 36/1/1 43/1/1
f 62/1/1 43/1/1 42/1/1
f 62/5/1 56/5/1 55/5/1
f 62/5/1 55/5/1 36/5/1
f 63/5/1 56/5/1 62/5/1
f 64/4/1 57/4/1 56/4/1
f 64/5/1 56/5/1 63/5/1
f 64/4/1 58/4/1 57/4/1
f 65/4/1 58/4/1 64/4/1
f 66/3/1 59/3/1 58/3/1
f 66/4/1 58/4/1 65/4/1
f 67/4/1 60/4/1 59/4/1
f 67/3/1 59/3/1 66/3/1
f 68/4/1 60/4/1 67/4/1
f 69/5/1 61/5/1 60/5/1
f 69/4/1 60/4/1 68/4/1
f 70/5/1 41/5/1 61/5/1
f 70/5/1 61/5/1 69/5/1
f 71/1/1 49/1/1 48/1/1
f 71/5/1 41/5/1 70/5/1
f 71/1/1 48/1/1 41/1/1
f 72/1/1 63/1/1 62/1/1
f 72/5/1 65/5/1 64/5/1
f 72/5/1 64/5/1 63/5/1
f 73/5/1 65/5/1 72/5/1
f 74/4/1 66/4/1 65/4/1
f 74/5/1 65/5/1 73/5/1
f 74/4/1 68/4/1 67/4/1
f 74/4/1 67/4/1 66/4/1
f 75/4/1 68/4/1 74/4/1
f 76/4/1 68/4/1 75/4/1
f 77/5/1 70/5/1 69/5/1
f 77/4/1 68/4/1 76/4/1
f 77/5/1 69/5/1 68/5/1
f 78/5/1 70/5/1 77/5/1
f 79/1/1 71/1/1 70/1/1
f 79/5/1 70/5/1 78/5/1
f 80/1/1 73/1/1 72/1/1
f 80/1/1 72/1/1 62/1/1
f 80/1/1 62/1/1 42/1/1
f 81/1/1 73/1/1 80/1/1
f 82/5/1 75/5/1 74/5/1
f 82/1/1 73/1/1 81/1/1
f 82/5/1 74/5/1 73/5/1
f 83/5/1 75/5/1 82/5/1
f 84/4/1 76/4/1 75/4/1
f 84/5/1 75/5/1 83/5/1
f 85/4/1 76/4/1 84/4/1
f 86/5/1 77/5/1 76/5/1
f 86/5/1 78/5/1 77/5/1
f 87/1/1 79/1/1 78/1/1
f 87/5/1 78/5/1 86/5/1
f 88/1/1 71/1/1 79/1/1
f 88/1/1 79/1/1 87/1/1
f 88/1/1 49/1/1 71/1/1
f 89/1/1 49/1/1 88/1/1
f 90/3/1 83/3/1 82/3/1
f 90/1/1 82/1/1 81/1/1
f 91/5/1 84/5/1 83/5/1
f 91/3/1 83/3/1 90/3/1
f 91/5/1 85/5/1 84/5/1
f 92/5/1 85/5/1 91/5/1
f 93/4/1 76/4/1 85/4/1
f 93/5/1 85/5/1 92/5/1
f 94/5/1 86/5/1 76/5/1
f 94/4/1 76/4/1 93/4/1
f 95/3/1 87/3/1 86/3/1
f 95/1/1 88/1/1 87/1/1
f 96/1/1 88/1/1 95/1/1
f 97/2/1 81/2/1 80/2/1
f 98/1/1 90/1/1 81/1/1
f 98/2/1 81/2/1 97/2/1
f 98/1/1 92/1/1 91/1/1
f 98/1/1 91/1/1 90/1/1
f 99/1/1 92/1/1 98/1/1
f 100/5/1 93/5/1 92/5/1
f 100/1/1 92/1/1 99/1/1
f 100/5/1 94/5/1 93/5/1
f 101/5/1 94/5/1 100/5/1
f 102/1/1 88/1/1 96/1/1
f 102/3/1 96/3/1 95/3/1
f 103/1/1 88/1/1 102/1/1
f 104/1/1 88/1/1 103/1/1
f 105/2/1 89/2/1 88/2/1
f 105/1/1 88/1/1 104/1/1
f 106/2/1 89/2/1 105/2/1
f 107/2/1 99/2/1 98/2/1
f 107/1/1 101/1/1 100/1/1
f 107/1/1 100/1/1 99/1/1
f 108/1/1 101/1/1 107/1/1
f 109/5/1 94/5/1 101/5/1
f 109/1/1 101/1/1 108/1/1
f 110/5/1 86/5/1 94/5/1
f 110/5/1 94/5/1 109/5/1
f 111/1/1 104/1/1 103/1/1
f 112/2/1 105/2/1 104/2/1
f 112/1/1 104/1/1 111/1/1
f 113/2/1 108/2/1 107/2/1
f 113/2/1 107/2/1 98/2/1
f 114/2/1 108/2/1 113/2/1
f 115/1/1 109/1/1 108/1/1
f 115/2/1 108/2/1 114/2/1
f 116/1/1 109/1/1 115/1/1
f 117/3/1 110/3/1 109/3/1
f 117/1/1 109/1/1 116/1/1
f 118/5/1 86/5/1 110/5/1
f 118/3/1 110/3/1 117/3/1
f 119/3/1 103/3/1 102/3/1
f 119/5/1 86/5/1 118/5/1
f 119/3/1 95/3/1 86/3/1
f 119/3/1 102/3/1 95/3/1
f 120/3/1 103/3/1 119/3/1
f 121/1/1 111/1/1 103/1/1
f 122/2/1 112/2/1 111/2/1
f 122/1/1 111/1/1 121/1/1
f 123/2/1 105/2/1 112/2/1
f 123/2/1 112/2/1 122/2/1
f 124/2/1 105/2/1 123/2/1
f 125/2/1 115/2/1 114/2/1
f 125/2/1 116/2/1 115/2/1
f 126/1/1 118/1/1 117/1/1
f 126/2/1 116/2/1 125/2/1
f 126/1/1 117/1/1 116/1/1
f 126/1/1 119/1/1 118/1/1
f 127/1/1 119/1/1 126/1/1
f 128/5/1 120/5/1 119/5/1
f 128/1/1 119/1/1 127/1/1
f 129/3/1 103/3/1 120/3/1
f 129/5/1 120/5/1 128/5/1
f 130/3/1 103/3/1 129/3/1
f 131/1/1 121/1/1 103/1/1
f 131/3/1 103/3/1 130/3/1
f 132/2/1 122/2/1 121/2/1
f 132/1/1 121/1/1 131/1/1
f 132/2/1 123/2/1 122/2/1
f 133/2/1 123/2/1 132/2/1
f 134/2/1 127/2/1 126/2/1
f 135/1/1 128/1/1 127/1/1
f 135/2/1 127/2/1 134/2/1
f 135/1/1 129/1/1 128/1/1
f 135/1/1 130/1/1 129/1/1
f 136/2/1 131/2/1 130/2/1
f 136/1/1 130/1/1 135/1/1
f 136/2/1 132/2/1 131/2/1
f 137/2/1 132/2/1 136/2/1
f 138/2/2 139/2/2 143/2/2
f 139/1/2 140/1/2 144/1/2
f 143/2/2 139/2/2 144/2/2
f 140/2/2 141/2/2 145/2/2
f 144/1/2 140/1/2 145/1/2
f 145/2/2 141/2/2 146/2/2
f 142/2/2 143/2/2 149/2/2
f 149/2/2 143/2/2 150/2/2
f 143/1/2 144/1/2 151/1/2
f 150/2/2 143/2/2 151/2/2
f 144/1/2 145/1/2 151/1/2
f 145/1/2 146/1/2 151/1/2
f 146/2/2 147/2/2 152/2/2
f 151/1/2 146/1/2 152/1/2
f 152/2/2 147/2/2 153/2/2
f 153/2/2 147/2/2 154/2/2
f 149/2/2 150/2/2 156/2/2
f 148/2/2 149/2/2 156/2/2
f 150/1/2 151/1/2 157/1/2
f 156/2/2 150/2/2 157/2/2
f 151/1/2 152/1/2 157/1/2
f 152/1/2 153/1/2 157/1/2
f 157/1/2 153/1/2 158/1/2
f 158/1/2 153/1/2 159/1/2
f 154/2/2 155/2/2 160/2/2
f 159/1/2 153/1/2 160/1/2
f 153/2/2 154/2/2 160/2/2
f 160/2/2 155/2/2 161/2/2
f 148/2/2 156/2/2 163/2/2
f 157/1/2 158/1/2 164/1/2
f 156/1/2 157/1/2 164/1/2
f 163/2/2 156/2/2 164/2/2
f 164/1/2 158/1/2 165/1/2
f 158/5/2 159/5/2 166/5/2
f 165/1/2 158/1/2 166/1/2
f 166/5/2 159/5/2 167/5/2
f 159/1/2 160/1/2 168/1/2
f 167/5/2 159/5/2 168/5/2
f 160/1/2 161/1/2 168/1/2
f 168/1/2 161/1/2 169/1/2
f 161/2/2 155/2/2 170/2/2
f 169/1/2 161/1/2 170/1/2
f 170/2/2 155/2/2 171/2/2
f 164/1/2 165/1/2 173/1/2
f 163/1/2 164/1/2 173/1/2
f 166/5/2 167/5/2 174/5/2
f 173/1/2 165/1/2 174/1/2
f 165/5/2 166/5/2 174/5/2
f 174/5/2 167/5/2 175/5/2
f 167/4/2 168/4/2 176/4/2
f 175/5/2 167/5/2 176/5/2
f 168/5/2 169/5/2 177/5/2
f 169/1/2 170/1/2 177/1/2
f 170/1/2 171/1/2 177/1/2
f 177/1/2 171/1/2 178/1/2
f 162/2/2 163/2/2 179/2/2
f 163/1/2 173/1/2 180/1/2
f 179/2/2 163/2/2 180/2/2
f 173/5/2 174/5/2 181/5/2
f 174/5/2 175/5/2 181/5/2
f 175/4/2 176/4/2 182/4/2
f 181/5/2 175/5/2 182/5/2
f 176/4/2 168/4/2 183/4/2
f 182/4/2 176/4/2 183/4/2
f 168/5/2 177/5/2 183/5/2
f 177/5/2 178/5/2 183/5/2
f 183/5/2 178/5/2 184/5/2
f 171/2/2 172/2/2 185/2/2
f 178/1/2 171/1/2 185/1/2
f 185/2/2 172/2/2 186/2/2
f 181/4/2 182/4/2 187/4/2
f 183/4/2 184/4/2 187/4/2
f 182/4/2 183/4/2 187/4/2
f 187/4/2 184/4/2 188/4/2
f 181/4/2 187/4/2 189/4/2
f 187/3/2 188/3/2 189/3/2
f 188/4/2 184/4/2 190/4/2
f 189/3/2 188/3/2 190/3/2
f 190/4/2 184/4/2 191/4/2
f 173/5/2 181/5/2 192/5/2
f 181/4/2 189/4/2 192/4/2
f 189/4/2 190/4/2 192/4/2
f 192/4/2 190/4/2 193/4/2
f 190/3/2 191/3/2 194/3/2
f 193/4/2 190/4/2 194/4/2
f 191/4/2 184/4/2 195/4/2
f 194/3/2 191/3/2 195/3/2
f 195/4/2 184/4/2 196/4/2
f 196/4/2 184/4/2 197/4/2
f 184/5/2 178/5/2 198/5/2
f 197/4/2 184/4/2 198/4/2
f 180/1/2 173/1/2 199/1/2
f 179/1/2 180/1/2 199/1/2
f 192/5/2 193/5/2 199/5/2
f 173/5/2 192/5/2 199/5/2
f 199/5/2 193/5/2 200/5/2
f 193/4/2 194/4/2 201/4/2
f 200/5/2 193/5/2 201/5/2
f 194/4/2 195/4/2 201/4/2
f 201/4/2 195/4/2 202/4/2
f 195/3/2 196/3/2 203/3/2
f 202/4/2 195/4/2 203/4/2
f 196/4/2 197/4/2 204/4/2
f 203/3/2 196/3/2 204/3/2
f 204/4/2 197/4/2 205/4/2
f 197/5/2 198/5/2 206/5/2
f 205/4/2 197/4/2 206/4/2
f 198/5/2 178/5/2 207/5/2
f 206/5/2 198/5/2 207/5/2
f 185/1/2 186/1/2 208/1/2
f 207/5/2 178/5/2 208/5/2
f 178/1/2 185/1/2 208/1/2
f 199/1/2 200/1/2 209/1/2
f 201/5/2 202/5/2 209/5/2
f 200/5/2 201/5/2 209/5/2
f 209/5/2 202/5/2 210/5/2
f 202/4/2 203/4/2 211/4/2
f 210/5/2 202/5/2 211/5/2
f 204/4/2 205/4/2 211/4/2
f 203/4/2 204/4/2 211/4/2
f 211/4/2 205/4/2 212/4/2
f 212/4/2 205/4/2 213/4/2
f 206/5/2 207/5/2 214/5/2
f 213/4/2 205/4/2 214/4/2
f 205/5/2 206/5/2 214/5/2
f 214/5/2 207/5/2 215/5/2
f 207/1/2 208/1/2 216/1/2
f 215/5/2 207/5/2 216/5/2
f 209/1/2 210/1/2 217/1/2
f 199/1/2 209/1/2 217/1/2
f 179/1/2 199/1/2 217/1/2
f 217/1/2 210/1/2 218/1/2
f 211/5/2 212/5/2 219/5/2
f 218/1/2 210/1/2 219/1/2
f 210/5/2 211/5/2 219/5/2
f 219/5/2 212/5/2 220/5/2
f 212/4/2 213/4/2 221/4/2
f 220/5/2 212/5/2 221/5/2
f 221/4/2 213/4/2 222/4/2
f 213/5/2 214/5/2 223/5/2
f 214/5/2 215/5/2 223/5/2
f 215/1/2 216/1/2 224/1/2
f 223/5/2 215/5/2 224/5/2
f 216/1/2 208/1/2 225/1/2
f 224/1/2 216/1/2 225/1/2
f 208/1/2 186/1/2 225/1/2
f 225/1/2 186/1/2 226/1/2
f 219/3/2 220/3/2 227/3/2
f 218/1/2 219/1/2 227/1/2
f 220/5/2 221/5/2 228/5/2
f 227/3/2 220/3/2 228/3/2
f 221/5/2 222/5/2 228/5/2
f 228/5/2 222/5/2 229/5/2
f 222/4/2 213/4/2 230/4/2
f 229/5/2 222/5/2 230/5/2
f 213/5/2 223/5/2 231/5/2
f 230/4/2 213/4/2 231/4/2
f 223/3/2 224/3/2 232/3/2
f 224/1/2 225/1/2 232/1/2
f 232/1/2 225/1/2 233/1/2
f 217/2/2 218/2/2 234/2/2
f 218/1/2 227/1/2 235/1/2
f 234/2/2 218/2/2 235/2/2
f 228/1/2 229/1/2 235/1/2
f 227/1/2 228/1/2 235/1/2
f 235/1/2 229/1/2 236/1/2
f 229/5/2 230/5/2 237/5/2
f 236/1/2 229/1/2 237/1/2
f 230/5/2 231/5/2 237/5/2
f 237/5/2 231/5/2 238/5/2
f 233/1/2 225/1/2 239/1/2
f 232/3/2 233/3/2 239/3/2
f 239/1/2 225/1/2 240/1/2
f 240/1/2 225/1/2 241/1/2
f 225/2/2 226/2/2 242/2/2
f 241/1/2 225/1/2 242/1/2
f 242/2/2 226/2/2 243/2/2
f 235/2/2 236/2/2 244/2/2
f 237/1/2 238/1/2 244/1/2
f 236/1/2 237/1/2 244/1/2
f 244/1/2 238/1/2 245/1/2
f 238/5/2 231/5/2 246/5/2
f 245/1/2 238/1/2 246/1/2
f 231/5/2 223/5/2 247/5/2
f 246/5/2 231/5/2 247/5/2
f 240/1/2 241/1/2 248/1/2
f 241/2/2 242/2/2 249/2/2
f 248/1/2 241/1/2 249/1/2
f 244/2/2 245/2/2 250/2/2
f 235/2/2 244/2/2 250/2/2
f 250/2/2 245/2/2 251/2/2
f 245/1/2 246/1/2 252/1/2
f 251/2/2 245/2/2 252/2/2
f 252/1/2 246/1/2 253/1/2
f 246/3/2 247/3/2 254/3/2
f 253/1/2 246/1/2 254/1/2
f 247/5/2 223/5/2 255/5/2
f 254/3/2 247/3/2 255/3/2
f 239/3/2 240/3/2 256/3/2
f 255/5/2 223/5/2 256/5/2
f 223/3/2 232/3/2 256/3/2
f 232/3/2 239/3/2 256/3/2
f 256/3/2 240/3/2 257/3/2
f 240/1/2 248/1/2 258/1/2
f 248/2/2 249/2/2 259/2/2
f 258/1/2 248/1/2 259/1/2
f 249/2/2 242/2/2 260/2/2
f 259/2/2 249/2/2 260/2/2
f 260/2/2 242/2/2 261/2/2
f 251/2/2 252/2/2 262/2/2
f 252/2/2 253/2/2 262/2/2
f 254/1/2 255/1/2 263/1/2
f 262/2/2 253/2/2 263/2/2
f 253/1/2 254/1/2 263/1/2
f 255/1/2 256/1/2 263/1/2
f 263/1/2 256/1/2 264/1/2
f 256/5/2 257/5/2 265/5/2
f 264/1/2 256/1/2 265/1/2
f 257/3/2 240/3/2 266/3/2
f 265/5/2 257/5/2 266/5/2
f 266/3/2 240/3/2 267/3/2
f 240/1/2 258/1/2 268/1/2
f 267/3/2 240/3/2 268/3/2
f 258/2/2 259/2/2 269/2/2
f 268/1/2 258/1/2 269/1/2
f 259/2/2 260/2/2 269/2/2
f 269/2/2 260/2/2 270/2/2
f 263/2/2 264/2/2 271/2/2
f 264/1/2 265/1/2 272/1/2
f 271/2/2 264/2/2 272/2/2
f 265/1/2 266/1/2 272/1/2
f 266/1/2 267/1/2 272/1/2
f 267/2/2 268/2/2 273/2/2
f 272/1/2 267/1/2 273/1/2
f 268/2/2 269/2/2 273/2/2
f 273/2/2 269/2/2 274/2/2
f 279/2/3 276/2/3 275/2/3
f 279/1/3 277/1/3 276/1/3
f 280/2/3 278/2/3 277/2/3
f 280/1/3 277/1/3 279/1/3
f 281/2/3 279/2/3 275/2/3
f 281/2/3 280/2/3 279/2/3
f 282/2/3 278/2/3 280/2/3
f 282/2/3 280/2/3 281/2/3
f 283/2/3 281/2/3 275/2/3
f 284/1/3 282/1/3 281/1/3
f 284/2/3 281/2/3 283/2/3
f 285/2/3 278/2/3 282/2/3
f 285/1/3 282/1/3 284/1/3
f 286/2/3 278/2/3 285/2/3
f 291/2/3 288/2/3 287/2/3
f 292/2/3 288/2/3 291/2/3
f 293/2/3 290/2/3 289/2/3
f 294/2/3 290/2/3 293/2/3
f 299/2/3 296/2/3 295/2/3
f 300/2/3 296/2/3 299/2/3
f 301/2/3 298/2/3 297/2/3
f 302/2/3 298/2/3 301/2/3
f 307/2/3 304/2/3 303/2/3
f 308/2/3 304/2/3 307/2/3
f 309/2/3 306/2/3 305/2/3
f 310/2/3 306/2/3 309/2/3
f 311/2/4 312/2/4 315/2/4
f 315/2/4 312/2/4 316/2/4
f 313/2/4 314/2/4 317/2/4
f 317/2/4 314/2/4 318/2/4
f 319/2/4 320/2/4 323/2/4
f 323/2/4 320/2/4 324/2/4
f 321/2/4 322/2/4 325/2/4
f 325/2/4 322/2/4 326/2/4
f 327/2/4 328/2/4 331/2/4
f 331/2/4 328/2/4 332/2/4
f 329/2/4 330/2/4 333/2/4
f 333/2/4 330/2/4 334/2/4
f 335/2/4 336/2/4 339/2/4
f 336/1/4 337/1/4 339/1/4
f 337/2/4 338/2/4 340/2/4
f 339/1/4 337/1/4 340/1/4
f 335/2/4 339/2/4 341/2/4
f 339/2/4 340/2/4 341/2/4
f 340/2/4 338/2/4 342/2/4
f 341/2/4 340/2/4 342/2/4
f 335/2/4 341/2/4 343/2/4
f 341/1/4 342/1/4 344/1/4
f 343/2/4 341/2/4 344/2/4
f 342/2/4 338/2/4 345/2/4
f 344/1/4 342/1/4 345/1/4
f 345/2/4 338/2/4 346/2/4
f 349/2/5 348/2/5 347/2/5
f 350/2/5 348/2/5 349/2/5
f 351/2/5 348/2/5 350/2/5
f 352/2/5 348/2/5 351/2/5
f 353/1/5 350/1/5 349/1/5
f 354/2/5 351/2/5 350/2/5
f 354/1/5 350/1/5 353/1/5
f 355/1/5 352/1/5 351/1/5
f 355/2/5 351/2/5 354/2/5
f 356/1/5 352/1/5 355/1/5
f 357/2/5 354/2/5 353/2/5
f 357/2/5 355/2/5 354/2/5
f 357/2/5 356/2/5 355/2/5
f 358/2/5 356/2/5 357/2/5
f 361/2/5 360/2/5 359/2/5
f 362/2/5 360/2/5 361/2/5
f 365/2/5 364/2/5 363/2/5
f 366/2/5 364/2/5 365/2/5
f 369/2/5 368/2/5 367/2/5
f 370/2/5 368/2/5 369/2/5
f 373/2/5 372/2/5 371/2/5
f 374/2/5 372/2/5 373/2/5
f 377/2/5 376/2/5 375/2/5
f 378/2/5 376/2/5 377/2/5
f 381/2/5 380/2/5 379/2/5
f 382/2/5 380/2/5 381/2/5
f 383/2/6 384/2/6 385/2/6
f 385/2/6 384/2/6 386/2/6
f 387/2/6 388/2/6 389/2/6
f 389/2/6 388/2/6 390/2/6
f 391/2/6 392/2/6 393/2/6
f 393/2/6 392/2/6 394/2/6
f 395/2/6 396/2/6 397/2/6
f 397/2/6 396/2/6 398/2/6
f 399/2/6 400/2/6 401/2/6
f 401/2/6 400/2/6 402/2/6
f 403/2/6 404/2/6 405/2/6
f 405/2/6 404/2/6 406/2/6
f 407/2/6 408/2/6 409/2/6
f 409/2/6 408/2/6 410/2/6
f 410/2/6 408/2/6 411/2/6
f 411/2/6 408/2/6 412/2/6
f 409/1/6 410/1/6 413/1/6
f 410/2/6 411/2/6 414/2/6
f 413/1/6 410/1/6 414/1/6
f 411/1/6 412/1/6 415/1/6
f 414/2/6 411/2/6 415/2/6
f 415/1/6 412/1/6 416/1/6
f 413/2/6 414/2/6 417/2/6
f 414/2/6 415/2/6 417/2/6
f 415/2/6 416/2/6 417/2/6
f 417/2/6 416/2/6 418/2/6
