# MagicaVoxel @ Ephtracy

# material
mtllib ghostboost.mtl
usemtl palette

# normals
vn -1 0 0
vn 1 0 0
vn 0 0 1
vn 0 0 -1
vn 0 -1 0
vn 0 1 0

# texcoords
vt 0.00195312 0.5
vt 0.0566406 0.5
vt 0.0605469 0.5

# verts
v -2 0 6
v -2 0 4
v -2 0 -4
v -2 0 -6
v -2 1 8
v -2 1 6
v -2 1 4
v -2 1 -4
v -2 1 -6
v -2 1 -8
v -2 2 9
v -2 2 8
v -2 2 7
v -2 2 6
v -2 2 -6
v -2 2 -7
v -2 2 -8
v -2 2 -9
v -2 3 8
v -2 3 7
v -2 3 5
v -2 3 4
v -2 3 -4
v -2 3 -5
v -2 3 -7
v -2 3 -8
v -2 4 10
v -2 4 9
v -2 4 8
v -2 4 4
v -2 4 3
v -2 4 2
v -2 4 1
v -2 4 -1
v -2 4 -2
v -2 4 -3
v -2 4 -4
v -2 4 -8
v -2 4 -9
v -2 4 -10
v -2 5 4
v -2 5 3
v -2 5 2
v -2 5 1
v -2 5 -1
v -2 5 -2
v -2 5 -3
v -2 5 -4
v -2 6 10
v -2 6 9
v -2 6 3
v -2 6 2
v -2 6 1
v -2 6 -1
v -2 6 -2
v -2 6 -3
v -2 6 -9
v -2 6 -10
v -2 10 3
v -2 10 1
v -2 10 -1
v -2 10 -3
v -2 11 3
v -2 11 2
v -2 11 -1
v -2 11 -2
v -2 12 3
v -2 12 2
v -2 12 -1
v -2 12 -2
v -2 13 3
v -2 13 1
v -2 13 -1
v -2 13 -3
v -2 14 10
v -2 14 9
v -2 14 5
v -2 14 4
v -2 14 3
v -2 14 -3
v -2 14 -4
v -2 14 -5
v -2 14 -9
v -2 14 -10
v -2 15 4
v -2 15 3
v -2 15 -3
v -2 15 -4
v -2 16 10
v -2 16 9
v -2 16 8
v -2 16 3
v -2 16 -3
v -2 16 -8
v -2 16 -9
v -2 16 -10
v -2 17 8
v -2 17 7
v -2 17 -7
v -2 17 -8
v -2 18 9
v -2 18 8
v -2 18 7
v -2 18 6
v -2 18 -6
v -2 18 -7
v -2 18 -8
v -2 18 -9
v -2 19 8
v -2 19 6
v -2 19 4
v -2 19 -4
v -2 19 -6
v -2 19 -8
v -2 20 6
v -2 20 4
v -2 20 -4
v -2 20 -6
v 2 0 6
v 2 0 4
v 2 0 -4
v 2 0 -6
v 2 1 8
v 2 1 6
v 2 1 4
v 2 1 -4
v 2 1 -6
v 2 1 -8
v 2 2 9
v 2 2 8
v 2 2 7
v 2 2 6
v 2 2 -6
v 2 2 -7
v 2 2 -8
v 2 2 -9
v 2 3 8
v 2 3 7
v 2 3 5
v 2 3 4
v 2 3 -4
v 2 3 -5
v 2 3 -7
v 2 3 -8
v 2 4 10
v 2 4 9
v 2 4 8
v 2 4 4
v 2 4 3
v 2 4 2
v 2 4 1
v 2 4 -1
v 2 4 -2
v 2 4 -3
v 2 4 -4
v 2 4 -8
v 2 4 -9
v 2 4 -10
v 2 5 4
v 2 5 3
v 2 5 2
v 2 5 1
v 2 5 -1
v 2 5 -2
v 2 5 -3
v 2 5 -4
v 2 6 10
v 2 6 9
v 2 6 3
v 2 6 2
v 2 6 1
v 2 6 -1
v 2 6 -2
v 2 6 -3
v 2 6 -9
v 2 6 -10
v 2 10 3
v 2 10 1
v 2 10 -1
v 2 10 -3
v 2 11 3
v 2 11 2
v 2 11 -1
v 2 11 -2
v 2 12 3
v 2 12 2
v 2 12 -1
v 2 12 -2
v 2 13 3
v 2 13 1
v 2 13 -1
v 2 13 -3
v 2 14 10
v 2 14 9
v 2 14 5
v 2 14 4
v 2 14 3
v 2 14 -3
v 2 14 -4
v 2 14 -5
v 2 14 -9
v 2 14 -10
v 2 15 4
v 2 15 3
v 2 15 -3
v 2 15 -4
v 2 16 10
v 2 16 9
v 2 16 8
v 2 16 3
v 2 16 -3
v 2 16 -8
v 2 16 -9
v 2 16 -10
v 2 17 8
v 2 17 7
v 2 17 -7
v 2 17 -8
v 2 18 9
v 2 18 8
v 2 18 7
v 2 18 6
v 2 18 -6
v 2 18 -7
v 2 18 -8
v 2 18 -9
v 2 19 8
v 2 19 6
v 2 19 4
v 2 19 -4
v 2 19 -6
v 2 19 -8
v 2 20 6
v 2 20 4
v 2 20 -4
v 2 20 -6
v -2 4 10
v -2 6 10
v -2 14 10
v -2 16 10
v -1 6 10
v -1 14 10
v 1 6 10
v 1 14 10
v 2 4 10
v 2 6 10
v 2 14 10
v 2 16 10
v -2 2 9
v -2 4 9
v -2 16 9
v -2 18 9
v 2 2 9
v 2 4 9
v 2 16 9
v 2 18 9
v -2 1 8
v -2 2 8
v -2 18 8
v -2 19 8
v 2 1 8
v 2 2 8
v 2 18 8
v 2 19 8
v -2 0 6
v -2 1 6
v -2 19 6
v -2 20 6
v 2 0 6
v 2 1 6
v 2 19 6
v 2 20 6
v -2 0 -6
v -2 1 -6
v -2 19 -6
v -2 20 -6
v 2 0 -6
v 2 1 -6
v 2 19 -6
v 2 20 -6
v -2 1 -8
v -2 2 -8
v -2 18 -8
v -2 19 -8
v 2 1 -8
v 2 2 -8
v 2 18 -8
v 2 19 -8
v -2 2 -9
v -2 4 -9
v -2 16 -9
v -2 18 -9
v 2 2 -9
v 2 4 -9
v 2 16 -9
v 2 18 -9
v -2 4 -10
v -2 6 -10
v -2 14 -10
v -2 16 -10
v -1 6 -10
v -1 14 -10
v 1 6 -10
v 1 14 -10
v 2 4 -10
v 2 6 -10
v 2 14 -10
v 2 16 -10
v -2 0 6
v 2 0 6
v -2 0 4
v -1 0 4
v 1 0 4
v 2 0 4
v -2 0 -4
v -1 0 -4
v 1 0 -4
v 2 0 -4
v -2 0 -6
v 2 0 -6
v -2 1 8
v 2 1 8
v -2 1 6
v 2 1 6
v -2 1 -6
v 2 1 -6
v -2 1 -8
v 2 1 -8
v -2 2 9
v 2 2 9
v -2 2 8
v 2 2 8
v -2 2 -8
v 2 2 -8
v -2 2 -9
v 2 2 -9
v -2 4 10
v 2 4 10
v -2 4 9
v 2 4 9
v -2 4 -9
v 2 4 -9
v -2 4 -10
v 2 4 -10
v -2 16 10
v 2 16 10
v -2 16 9
v 2 16 9
v -2 16 -9
v 2 16 -9
v -2 16 -10
v 2 16 -10
v -2 18 9
v 2 18 9
v -2 18 8
v 2 18 8
v -2 18 -8
v 2 18 -8
v -2 18 -9
v 2 18 -9
v -2 19 8
v 2 19 8
v -2 19 6
v 2 19 6
v -2 19 -6
v 2 19 -6
v -2 19 -8
v 2 19 -8
v -2 20 6
v 2 20 6
v -2 20 4
v -1 20 4
v 1 20 4
v 2 20 4
v -2 20 -4
v -1 20 -4
v 1 20 -4
v 2 20 -4
v -2 20 -6
v 2 20 -6

# faces
f 6/3/1 2/3/1 1/3/1
f 7/1/1 3/1/1 2/1/1
f 7/3/1 2/3/1 6/3/1
f 8/3/1 4/3/1 3/3/1
f 8/1/1 3/1/1 7/1/1
f 9/3/1 4/3/1 8/3/1
f 12/3/1 6/3/1 5/3/1
f 13/3/1 6/3/1 12/3/1
f 14/1/1 7/1/1 6/1/1
f 14/3/1 6/3/1 13/3/1
f 14/1/1 8/1/1 7/1/1
f 14/1/1 9/1/1 8/1/1
f 15/3/1 10/3/1 9/3/1
f 15/1/1 9/1/1 14/1/1
f 16/3/1 10/3/1 15/3/1
f 17/3/1 10/3/1 16/3/1
f 19/3/1 13/3/1 12/3/1
f 19/3/1 12/3/1 11/3/1
f 20/1/1 14/1/1 13/1/1
f 20/3/1 13/3/1 19/3/1
f 20/1/1 15/1/1 14/1/1
f 20/1/1 16/1/1 15/1/1
f 21/1/1 16/1/1 20/1/1
f 22/1/1 16/1/1 21/1/1
f 23/1/1 16/1/1 22/1/1
f 24/1/1 16/1/1 23/1/1
f 25/3/1 18/3/1 17/3/1
f 25/1/1 16/1/1 24/1/1
f 25/3/1 17/3/1 16/3/1
f 26/3/1 18/3/1 25/3/1
f 28/3/1 19/3/1 11/3/1
f 29/1/1 20/1/1 19/1/1
f 29/1/1 21/1/1 20/1/1
f 29/3/1 19/3/1 28/3/1
f 30/1/1 23/1/1 22/1/1
f 30/2/1 22/2/1 21/2/1
f 31/1/1 23/1/1 30/1/1
f 32/1/1 23/1/1 31/1/1
f 33/1/1 23/1/1 32/1/1
f 34/1/1 23/1/1 33/1/1
f 35/1/1 23/1/1 34/1/1
f 36/1/1 23/1/1 35/1/1
f 37/2/1 24/2/1 23/2/1
f 37/1/1 23/1/1 36/1/1
f 38/3/1 18/3/1 26/3/1
f 38/1/1 25/1/1 24/1/1
f 38/1/1 26/1/1 25/1/1
f 39/3/1 18/3/1 38/3/1
f 41/2/1 30/2/1 21/2/1
f 41/2/1 31/2/1 30/2/1
f 42/1/1 32/1/1 31/1/1
f 42/2/1 31/2/1 41/2/1
f 43/2/1 33/2/1 32/2/1
f 43/1/1 32/1/1 42/1/1
f 44/1/1 34/1/1 33/1/1
f 44/2/1 33/2/1 43/2/1
f 45/2/1 35/2/1 34/2/1
f 45/1/1 34/1/1 44/1/1
f 46/1/1 36/1/1 35/1/1
f 46/2/1 35/2/1 45/2/1
f 47/2/1 37/2/1 36/2/1
f 47/1/1 36/1/1 46/1/1
f 48/2/1 24/2/1 37/2/1
f 48/2/1 37/2/1 47/2/1
f 49/3/1 28/3/1 27/3/1
f 50/1/1 29/1/1 28/1/1
f 50/3/1 28/3/1 49/3/1
f 51/1/1 42/1/1 41/1/1
f 51/2/1 43/2/1 42/2/1
f 52/1/1 44/1/1 43/1/1
f 52/2/1 43/2/1 51/2/1
f 53/2/1 45/2/1 44/2/1
f 53/1/1 44/1/1 52/1/1
f 54/1/1 46/1/1 45/1/1
f 54/2/1 45/2/1 53/2/1
f 55/2/1 47/2/1 46/2/1
f 55/1/1 46/1/1 54/1/1
f 56/1/1 48/1/1 47/1/1
f 56/2/1 47/2/1 55/2/1
f 57/3/1 40/3/1 39/3/1
f 57/1/1 39/1/1 38/1/1
f 58/3/1 40/3/1 57/3/1
f 59/1/1 52/1/1 51/1/1
f 59/1/1 54/1/1 53/1/1
f 59/1/1 53/1/1 52/1/1
f 59/1/1 51/1/1 41/1/1
f 59/1/1 55/1/1 54/1/1
f 59/1/1 56/1/1 55/1/1
f 60/1/1 56/1/1 59/1/1
f 61/1/1 56/1/1 60/1/1
f 62/1/1 48/1/1 56/1/1
f 62/1/1 56/1/1 61/1/1
f 63/1/1 59/1/1 41/1/1
f 63/2/1 60/2/1 59/2/1
f 64/2/1 60/2/1 63/2/1
f 65/1/1 61/1/1 60/1/1
f 65/2/1 62/2/1 61/2/1
f 66/2/1 62/2/1 65/2/1
f 67/1/1 64/1/1 63/1/1
f 67/1/1 63/1/1 41/1/1
f 68/2/1 60/2/1 64/2/1
f 68/1/1 64/1/1 67/1/1
f 69/1/1 66/1/1 65/1/1
f 69/1/1 65/1/1 60/1/1
f 70/2/1 62/2/1 66/2/1
f 70/1/1 66/1/1 69/1/1
f 71/1/1 67/1/1 41/1/1
f 71/2/1 68/2/1 67/2/1
f 72/1/1 69/1/1 60/1/1
f 72/2/1 68/2/1 71/2/1
f 72/2/1 60/2/1 68/2/1
f 73/2/1 70/2/1 69/2/1
f 73/1/1 69/1/1 72/1/1
f 74/2/1 62/2/1 70/2/1
f 74/2/1 70/2/1 73/2/1
f 74/1/1 48/1/1 62/1/1
f 75/1/1 50/1/1 49/1/1
f 76/1/1 29/1/1 50/1/1
f 76/1/1 50/1/1 75/1/1
f 77/1/1 21/1/1 29/1/1
f 77/1/1 29/1/1 76/1/1
f 77/2/1 41/2/1 21/2/1
f 78/1/1 73/1/1 72/1/1
f 78/2/1 41/2/1 77/2/1
f 78/1/1 74/1/1 73/1/1
f 78/1/1 71/1/1 41/1/1
f 78/1/1 72/1/1 71/1/1
f 79/1/1 74/1/1 78/1/1
f 80/1/1 48/1/1 74/1/1
f 80/1/1 74/1/1 79/1/1
f 81/2/1 24/2/1 48/2/1
f 81/1/1 48/1/1 80/1/1
f 82/1/1 58/1/1 57/1/1
f 82/2/1 24/2/1 81/2/1
f 82/1/1 57/1/1 38/1/1
f 82/1/1 38/1/1 24/1/1
f 83/1/1 58/1/1 82/1/1
f 84/1/1 58/1/1 83/1/1
f 85/1/1 78/1/1 77/1/1
f 85/1/1 77/1/1 76/1/1
f 85/2/1 79/2/1 78/2/1
f 86/1/1 80/1/1 79/1/1
f 86/2/1 79/2/1 85/2/1
f 87/2/1 81/2/1 80/2/1
f 87/1/1 80/1/1 86/1/1
f 88/1/1 83/1/1 82/1/1
f 88/2/1 81/2/1 87/2/1
f 88/1/1 82/1/1 81/1/1
f 89/3/1 76/3/1 75/3/1
f 90/1/1 86/1/1 85/1/1
f 90/3/1 76/3/1 89/3/1
f 90/1/1 85/1/1 76/1/1
f 91/1/1 86/1/1 90/1/1
f 92/2/1 87/2/1 86/2/1
f 92/1/1 86/1/1 91/1/1
f 93/1/1 88/1/1 87/1/1
f 93/2/1 87/2/1 92/2/1
f 94/1/1 83/1/1 88/1/1
f 94/1/1 88/1/1 93/1/1
f 95/3/1 84/3/1 83/3/1
f 95/1/1 83/1/1 94/1/1
f 96/3/1 84/3/1 95/3/1
f 97/1/1 93/1/1 92/1/1
f 97/1/1 92/1/1 91/1/1
f 97/1/1 94/1/1 93/1/1
f 97/3/1 91/3/1 90/3/1
f 98/1/1 94/1/1 97/1/1
f 99/1/1 94/1/1 98/1/1
f 100/3/1 95/3/1 94/3/1
f 100/1/1 94/1/1 99/1/1
f 101/3/1 97/3/1 90/3/1
f 101/3/1 98/3/1 97/3/1
f 102/3/1 98/3/1 101/3/1
f 103/1/1 99/1/1 98/1/1
f 103/3/1 98/3/1 102/3/1
f 104/1/1 99/1/1 103/1/1
f 105/1/1 99/1/1 104/1/1
f 106/3/1 100/3/1 99/3/1
f 106/1/1 99/1/1 105/1/1
f 107/3/1 95/3/1 100/3/1
f 107/3/1 100/3/1 106/3/1
f 108/3/1 95/3/1 107/3/1
f 109/3/1 103/3/1 102/3/1
f 109/3/1 104/3/1 103/3/1
f 110/1/1 105/1/1 104/1/1
f 110/3/1 104/3/1 109/3/1
f 111/1/1 105/1/1 110/1/1
f 112/1/1 105/1/1 111/1/1
f 113/3/1 106/3/1 105/3/1
f 113/1/1 105/1/1 112/1/1
f 113/3/1 107/3/1 106/3/1
f 114/3/1 107/3/1 113/3/1
f 115/3/1 111/3/1 110/3/1
f 116/1/1 112/1/1 111/1/1
f 116/3/1 111/3/1 115/3/1
f 117/3/1 113/3/1 112/3/1
f 117/1/1 112/1/1 116/1/1
f 118/3/1 113/3/1 117/3/1
f 119/3/2 120/3/2 124/3/2
f 120/1/2 121/1/2 125/1/2
f 124/3/2 120/3/2 125/3/2
f 121/3/2 122/3/2 126/3/2
f 125/1/2 121/1/2 126/1/2
f 126/3/2 122/3/2 127/3/2
f 123/3/2 124/3/2 130/3/2
f 130/3/2 124/3/2 131/3/2
f 124/1/2 125/1/2 132/1/2
f 131/3/2 124/3/2 132/3/2
f 125/1/2 126/1/2 132/1/2
f 126/1/2 127/1/2 132/1/2
f 127/3/2 128/3/2 133/3/2
f 132/1/2 127/1/2 133/1/2
f 133/3/2 128/3/2 134/3/2
f 134/3/2 128/3/2 135/3/2
f 130/3/2 131/3/2 137/3/2
f 129/3/2 130/3/2 137/3/2
f 131/1/2 132/1/2 138/1/2
f 137/3/2 131/3/2 138/3/2
f 132/1/2 133/1/2 138/1/2
f 133/1/2 134/1/2 138/1/2
f 138/1/2 134/1/2 139/1/2
f 139/1/2 134/1/2 140/1/2
f 140/1/2 134/1/2 141/1/2
f 141/1/2 134/1/2 142/1/2
f 135/3/2 136/3/2 143/3/2
f 142/1/2 134/1/2 143/1/2
f 134/3/2 135/3/2 143/3/2
f 143/3/2 136/3/2 144/3/2
f 129/3/2 137/3/2 146/3/2
f 137/1/2 138/1/2 147/1/2
f 138/1/2 139/1/2 147/1/2
f 146/3/2 137/3/2 147/3/2
f 140/1/2 141/1/2 148/1/2
f 139/2/2 140/2/2 148/2/2
f 148/1/2 141/1/2 149/1/2
f 149/1/2 141/1/2 150/1/2
f 150/1/2 141/1/2 151/1/2
f 151/1/2 141/1/2 152/1/2
f 152/1/2 141/1/2 153/1/2
f 153/1/2 141/1/2 154/1/2
f 141/2/2 142/2/2 155/2/2
f 154/1/2 141/1/2 155/1/2
f 144/3/2 136/3/2 156/3/2
f 142/1/2 143/1/2 156/1/2
f 143/1/2 144/1/2 156/1/2
f 156/3/2 136/3/2 157/3/2
f 139/2/2 148/2/2 159/2/2
f 148/2/2 149/2/2 159/2/2
f 149/1/2 150/1/2 160/1/2
f 159/2/2 149/2/2 160/2/2
f 150/2/2 151/2/2 161/2/2
f 160/1/2 150/1/2 161/1/2
f 151/1/2 152/1/2 162/1/2
f 161/2/2 151/2/2 162/2/2
f 152/2/2 153/2/2 163/2/2
f 162/1/2 152/1/2 163/1/2
f 153/1/2 154/1/2 164/1/2
f 163/2/2 153/2/2 164/2/2
f 154/2/2 155/2/2 165/2/2
f 164/1/2 154/1/2 165/1/2
f 155/2/2 142/2/2 166/2/2
f 165/2/2 155/2/2 166/2/2
f 145/3/2 146/3/2 167/3/2
f 146/1/2 147/1/2 168/1/2
f 167/3/2 146/3/2 168/3/2
f 159/1/2 160/1/2 169/1/2
f 160/2/2 161/2/2 169/2/2
f 161/1/2 162/1/2 170/1/2
f 169/2/2 161/2/2 170/2/2
f 162/2/2 163/2/2 171/2/2
f 170/1/2 162/1/2 171/1/2
f 163/1/2 164/1/2 172/1/2
f 171/2/2 163/2/2 172/2/2
f 164/2/2 165/2/2 173/2/2
f 172/1/2 164/1/2 173/1/2
f 165/1/2 166/1/2 174/1/2
f 173/2/2 165/2/2 174/2/2
f 157/3/2 158/3/2 175/3/2
f 156/1/2 157/1/2 175/1/2
f 175/3/2 158/3/2 176/3/2
f 169/1/2 170/1/2 177/1/2
f 171/1/2 172/1/2 177/1/2
f 170/1/2 171/1/2 177/1/2
f 159/1/2 169/1/2 177/1/2
f 172/1/2 173/1/2 177/1/2
f 173/1/2 174/1/2 177/1/2
f 177/1/2 174/1/2 178/1/2
f 178/1/2 174/1/2 179/1/2
f 174/1/2 166/1/2 180/1/2
f 179/1/2 174/1/2 180/1/2
f 159/1/2 177/1/2 181/1/2
f 177/2/2 178/2/2 181/2/2
f 181/2/2 178/2/2 182/2/2
f 178/1/2 179/1/2 183/1/2
f 179/2/2 180/2/2 183/2/2
f 183/2/2 180/2/2 184/2/2
f 181/1/2 182/1/2 185/1/2
f 159/1/2 181/1/2 185/1/2
f 182/2/2 178/2/2 186/2/2
f 185/1/2 182/1/2 186/1/2
f 183/1/2 184/1/2 187/1/2
f 178/1/2 183/1/2 187/1/2
f 184/2/2 180/2/2 188/2/2
f 187/1/2 184/1/2 188/1/2
f 159/1/2 185/1/2 189/1/2
f 185/2/2 186/2/2 189/2/2
f 178/1/2 187/1/2 190/1/2
f 189/2/2 186/2/2 190/2/2
f 186/2/2 178/2/2 190/2/2
f 187/2/2 188/2/2 191/2/2
f 190/1/2 187/1/2 191/1/2
f 188/2/2 180/2/2 192/2/2
f 191/2/2 188/2/2 192/2/2
f 180/1/2 166/1/2 192/1/2
f 167/1/2 168/1/2 193/1/2
f 168/1/2 147/1/2 194/1/2
f 193/1/2 168/1/2 194/1/2
f 147/1/2 139/1/2 195/1/2
f 194/1/2 147/1/2 195/1/2
f 139/2/2 159/2/2 195/2/2
f 190/1/2 191/1/2 196/1/2
f 195/2/2 159/2/2 196/2/2
f 191/1/2 192/1/2 196/1/2
f 159/1/2 189/1/2 196/1/2
f 189/1/2 190/1/2 196/1/2
f 196/1/2 192/1/2 197/1/2
f 192/1/2 166/1/2 198/1/2
f 197/1/2 192/1/2 198/1/2
f 166/2/2 142/2/2 199/2/2
f 198/1/2 166/1/2 199/1/2
f 175/1/2 176/1/2 200/1/2
f 199/2/2 142/2/2 200/2/2
f 156/1/2 175/1/2 200/1/2
f 142/1/2 156/1/2 200/1/2
f 200/1/2 176/1/2 201/1/2
f 201/1/2 176/1/2 202/1/2
f 195/1/2 196/1/2 203/1/2
f 194/1/2 195/1/2 203/1/2
f 196/2/2 197/2/2 203/2/2
f 197/1/2 198/1/2 204/1/2
f 203/2/2 197/2/2 204/2/2
f 198/2/2 199/2/2 205/2/2
f 204/1/2 198/1/2 205/1/2
f 200/1/2 201/1/2 206/1/2
f 205/2/2 199/2/2 206/2/2
f 199/1/2 200/1/2 206/1/2
f 193/3/2 194/3/2 207/3/2
f 203/1/2 204/1/2 208/1/2
f 207/3/2 194/3/2 208/3/2
f 194/1/2 203/1/2 208/1/2
f 208/1/2 204/1/2 209/1/2
f 204/2/2 205/2/2 210/2/2
f 209/1/2 204/1/2 210/1/2
f 205/1/2 206/1/2 211/1/2
f 210/2/2 205/2/2 211/2/2
f 206/1/2 201/1/2 212/1/2
f 211/1/2 206/1/2 212/1/2
f 201/3/2 202/3/2 213/3/2
f 212/1/2 201/1/2 213/1/2
f 213/3/2 202/3/2 214/3/2
f 210/1/2 211/1/2 215/1/2
f 209/1/2 210/1/2 215/1/2
f 211/1/2 212/1/2 215/1/2
f 208/3/2 209/3/2 215/3/2
f 215/1/2 212/1/2 216/1/2
f 216/1/2 212/1/2 217/1/2
f 212/3/2 213/3/2 218/3/2
f 217/1/2 212/1/2 218/1/2
f 208/3/2 215/3/2 219/3/2
f 215/3/2 216/3/2 219/3/2
f 219/3/2 216/3/2 220/3/2
f 216/1/2 217/1/2 221/1/2
f 220/3/2 216/3/2 221/3/2
f 221/1/2 217/1/2 222/1/2
f 222/1/2 217/1/2 223/1/2
f 217/3/2 218/3/2 224/3/2
f 223/1/2 217/1/2 224/1/2
f 218/3/2 213/3/2 225/3/2
f 224/3/2 218/3/2 225/3/2
f 225/3/2 213/3/2 226/3/2
f 220/3/2 221/3/2 227/3/2
f 221/3/2 222/3/2 227/3/2
f 222/1/2 223/1/2 228/1/2
f 227/3/2 222/3/2 228/3/2
f 228/1/2 223/1/2 229/1/2
f 229/1/2 223/1/2 230/1/2
f 223/3/2 224/3/2 231/3/2
f 230/1/2 223/1/2 231/1/2
f 224/3/2 225/3/2 231/3/2
f 231/3/2 225/3/2 232/3/2
f 228/3/2 229/3/2 233/3/2
f 229/1/2 230/1/2 234/1/2
f 233/3/2 229/3/2 234/3/2
f 230/3/2 231/3/2 235/3/2
f 234/1/2 230/1/2 235/1/2
f 235/3/2 231/3/2 236/3/2
f 241/3/3 238/3/3 237/3/3
f 241/1/3 239/1/3 238/1/3
f 242/3/3 240/3/3 239/3/3
f 242/1/3 239/1/3 241/1/3
f 243/3/3 241/3/3 237/3/3
f 243/3/3 242/3/3 241/3/3
f 244/3/3 240/3/3 242/3/3
f 244/3/3 242/3/3 243/3/3
f 245/3/3 243/3/3 237/3/3
f 246/1/3 244/1/3 243/1/3
f 246/3/3 243/3/3 245/3/3
f 247/3/3 240/3/3 244/3/3
f 247/1/3 244/1/3 246/1/3
f 248/3/3 240/3/3 247/3/3
f 253/3/3 250/3/3 249/3/3
f 254/3/3 250/3/3 253/3/3
f 255/3/3 252/3/3 251/3/3
f 256/3/3 252/3/3 255/3/3
f 261/3/3 258/3/3 257/3/3
f 262/3/3 258/3/3 261/3/3
f 263/3/3 260/3/3 259/3/3
f 264/3/3 260/3/3 263/3/3
f 269/3/3 266/3/3 265/3/3
f 270/3/3 266/3/3 269/3/3
f 271/3/3 268/3/3 267/3/3
f 272/3/3 268/3/3 271/3/3
f 273/3/4 274/3/4 277/3/4
f 277/3/4 274/3/4 278/3/4
f 275/3/4 276/3/4 279/3/4
f 279/3/4 276/3/4 280/3/4
f 281/3/4 282/3/4 285/3/4
f 285/3/4 282/3/4 286/3/4
f 283/3/4 284/3/4 287/3/4
f 287/3/4 284/3/4 288/3/4
f 289/3/4 290/3/4 293/3/4
f 293/3/4 290/3/4 294/3/4
f 291/3/4 292/3/4 295/3/4
f 295/3/4 292/3/4 296/3/4
f 297/3/4 298/3/4 301/3/4
f 298/1/4 299/1/4 301/1/4
f 299/3/4 300/3/4 302/3/4
f 301/1/4 299/1/4 302/1/4
f 297/3/4 301/3/4 303/3/4
f 301/3/4 302/3/4 303/3/4
f 302/3/4 300/3/4 304/3/4
f 303/3/4 302/3/4 304/3/4
f 297/3/4 303/3/4 305/3/4
f 303/1/4 304/1/4 306/1/4
f 305/3/4 303/3/4 306/3/4
f 304/3/4 300/3/4 307/3/4
f 306/1/4 304/1/4 307/1/4
f 307/3/4 300/3/4 308/3/4
f 311/3/5 310/3/5 309/3/5
f 312/3/5 310/3/5 311/3/5
f 313/3/5 310/3/5 312/3/5
f 314/3/5 310/3/5 313/3/5
f 315/1/5 312/1/5 311/1/5
f 316/3/5 313/3/5 312/3/5
f 316/1/5 312/1/5 315/1/5
f 317/1/5 314/1/5 313/1/5
f 317/3/5 313/3/5 316/3/5
f 318/1/5 314/1/5 317/1/5
f 319/3/5 316/3/5 315/3/5
f 319/3/5 317/3/5 316/3/5
f 319/3/5 318/3/5 317/3/5
f 320/3/5 318/3/5 319/3/5
f 323/3/5 322/3/5 321/3/5
f 324/3/5 322/3/5 323/3/5
f 327/3/5 326/3/5 325/3/5
f 328/3/5 326/3/5 327/3/5
f 331/3/5 330/3/5 329/3/5
f 332/3/5 330/3/5 331/3/5
f 335/3/5 334/3/5 333/3/5
f 336/3/5 334/3/5 335/3/5
f 339/3/5 338/3/5 337/3/5
f 340/3/5 338/3/5 339/3/5
f 343/3/5 342/3/5 341/3/5
f 344/3/5 342/3/5 343/3/5
f 345/3/6 346/3/6 347/3/6
f 347/3/6 346/3/6 348/3/6
f 349/3/6 350/3/6 351/3/6
f 351/3/6 350/3/6 352/3/6
f 353/3/6 354/3/6 355/3/6
f 355/3/6 354/3/6 356/3/6
f 357/3/6 358/3/6 359/3/6
f 359/3/6 358/3/6 360/3/6
f 361/3/6 362/3/6 363/3/6
f 363/3/6 362/3/6 364/3/6
f 365/3/6 366/3/6 367/3/6
f 367/3/6 366/3/6 368/3/6
f 369/3/6 370/3/6 371/3/6
f 371/3/6 370/3/6 372/3/6
f 372/3/6 370/3/6 373/3/6
f 373/3/6 370/3/6 374/3/6
f 371/1/6 372/1/6 375/1/6
f 372/3/6 373/3/6 376/3/6
f 375/1/6 372/1/6 376/1/6
f 373/1/6 374/1/6 377/1/6
f 376/3/6 373/3/6 377/3/6
f 377/1/6 374/1/6 378/1/6
f 375/3/6 376/3/6 379/3/6
f 376/3/6 377/3/6 379/3/6
f 377/3/6 378/3/6 379/3/6
f 379/3/6 378/3/6 380/3/6
