# MagicaVoxel @ Ephtracy

# material
mtllib shieldboost.mtl
usemtl palette

# normals
vn -1 0 0
vn 1 0 0
vn 0 0 1
vn 0 0 -1
vn 0 -1 0
vn 0 1 0

# texcoords
vt 0.00195312 0.5
vt 0.0488281 0.5
vt 0.0605469 0.5
vt 0.0683594 0.5
vt 0.943359 0.5

# verts
v -2 0 6
v -2 0 4
v -2 0 -4
v -2 0 -6
v -2 1 8
v -2 1 6
v -2 1 4
v -2 1 1
v -2 1 -1
v -2 1 -4
v -2 1 -6
v -2 1 -8
v -2 2 9
v -2 2 8
v -2 2 7
v -2 2 6
v -2 2 2
v -2 2 1
v -2 2 -1
v -2 2 -2
v -2 2 -6
v -2 2 -7
v -2 2 -8
v -2 2 -9
v -2 3 8
v -2 3 7
v -2 3 3
v -2 3 2
v -2 3 1
v -2 3 -1
v -2 3 -2
v -2 3 -3
v -2 3 -7
v -2 3 -8
v -2 4 10
v -2 4 9
v -2 4 8
v -2 4 4
v -2 4 3
v -2 4 2
v -2 4 -2
v -2 4 -3
v -2 4 -4
v -2 4 -8
v -2 4 -9
v -2 4 -10
v -2 5 5
v -2 5 4
v -2 5 3
v -2 5 2
v -2 5 1
v -2 5 -1
v -2 5 -2
v -2 5 -3
v -2 5 -4
v -2 5 -5
v -2 6 10
v -2 6 9
v -2 6 6
v -2 6 5
v -2 6 4
v -2 6 2
v -2 6 1
v -2 6 -1
v -2 6 -2
v -2 6 -4
v -2 6 -5
v -2 6 -6
v -2 6 -9
v -2 6 -10
v -2 7 4
v -2 7 3
v -2 7 -3
v -2 7 -4
v -2 8 4
v -2 8 3
v -2 8 1
v -2 8 -1
v -2 8 -3
v -2 8 -4
v -2 9 4
v -2 9 3
v -2 9 1
v -2 9 -1
v -2 9 -3
v -2 9 -4
v -2 10 4
v -2 10 3
v -2 10 -3
v -2 10 -4
v -2 11 2
v -2 11 1
v -2 11 -1
v -2 11 -2
v -2 12 2
v -2 12 1
v -2 12 -1
v -2 12 -2
v -2 13 6
v -2 13 5
v -2 13 4
v -2 13 -4
v -2 13 -5
v -2 13 -6
v -2 14 10
v -2 14 9
v -2 14 5
v -2 14 4
v -2 14 -4
v -2 14 -5
v -2 14 -9
v -2 14 -10
v -2 15 4
v -2 15 -4
v -2 16 10
v -2 16 9
v -2 16 8
v -2 16 -8
v -2 16 -9
v -2 16 -10
v -2 17 8
v -2 17 7
v -2 17 -7
v -2 17 -8
v -2 18 9
v -2 18 8
v -2 18 7
v -2 18 6
v -2 18 -6
v -2 18 -7
v -2 18 -8
v -2 18 -9
v -2 19 8
v -2 19 6
v -2 19 4
v -2 19 -4
v -2 19 -6
v -2 19 -8
v -2 20 6
v -2 20 4
v -2 20 -4
v -2 20 -6
v 2 0 6
v 2 0 4
v 2 0 -4
v 2 0 -6
v 2 1 8
v 2 1 6
v 2 1 4
v 2 1 1
v 2 1 -1
v 2 1 -4
v 2 1 -6
v 2 1 -8
v 2 2 9
v 2 2 8
v 2 2 7
v 2 2 6
v 2 2 2
v 2 2 1
v 2 2 -1
v 2 2 -2
v 2 2 -6
v 2 2 -7
v 2 2 -8
v 2 2 -9
v 2 3 8
v 2 3 7
v 2 3 3
v 2 3 2
v 2 3 1
v 2 3 -1
v 2 3 -2
v 2 3 -3
v 2 3 -7
v 2 3 -8
v 2 4 10
v 2 4 9
v 2 4 8
v 2 4 4
v 2 4 3
v 2 4 2
v 2 4 -2
v 2 4 -3
v 2 4 -4
v 2 4 -8
v 2 4 -9
v 2 4 -10
v 2 5 5
v 2 5 4
v 2 5 3
v 2 5 2
v 2 5 1
v 2 5 -1
v 2 5 -2
v 2 5 -3
v 2 5 -4
v 2 5 -5
v 2 6 10
v 2 6 9
v 2 6 6
v 2 6 5
v 2 6 4
v 2 6 2
v 2 6 1
v 2 6 -1
v 2 6 -2
v 2 6 -4
v 2 6 -5
v 2 6 -6
v 2 6 -9
v 2 6 -10
v 2 7 4
v 2 7 3
v 2 7 -3
v 2 7 -4
v 2 8 4
v 2 8 3
v 2 8 1
v 2 8 -1
v 2 8 -3
v 2 8 -4
v 2 9 4
v 2 9 3
v 2 9 1
v 2 9 -1
v 2 9 -3
v 2 9 -4
v 2 10 4
v 2 10 3
v 2 10 -3
v 2 10 -4
v 2 11 2
v 2 11 1
v 2 11 -1
v 2 11 -2
v 2 12 2
v 2 12 1
v 2 12 -1
v 2 12 -2
v 2 13 6
v 2 13 5
v 2 13 4
v 2 13 -4
v 2 13 -5
v 2 13 -6
v 2 14 10
v 2 14 9
v 2 14 5
v 2 14 4
v 2 14 -4
v 2 14 -5
v 2 14 -9
v 2 14 -10
v 2 15 4
v 2 15 -4
v 2 16 10
v 2 16 9
v 2 16 8
v 2 16 -8
v 2 16 -9
v 2 16 -10
v 2 17 8
v 2 17 7
v 2 17 -7
v 2 17 -8
v 2 18 9
v 2 18 8
v 2 18 7
v 2 18 6
v 2 18 -6
v 2 18 -7
v 2 18 -8
v 2 18 -9
v 2 19 8
v 2 19 6
v 2 19 4
v 2 19 -4
v 2 19 -6
v 2 19 -8
v 2 20 6
v 2 20 4
v 2 20 -4
v 2 20 -6
v -2 4 10
v -2 6 10
v -2 14 10
v -2 16 10
v -1 6 10
v -1 14 10
v 1 6 10
v 1 14 10
v 2 4 10
v 2 6 10
v 2 14 10
v 2 16 10
v -2 2 9
v -2 4 9
v -2 16 9
v -2 18 9
v 2 2 9
v 2 4 9
v 2 16 9
v 2 18 9
v -2 1 8
v -2 2 8
v -2 18 8
v -2 19 8
v 2 1 8
v 2 2 8
v 2 18 8
v 2 19 8
v -2 0 6
v -2 1 6
v -2 19 6
v -2 20 6
v 2 0 6
v 2 1 6
v 2 19 6
v 2 20 6
v -2 0 -6
v -2 1 -6
v -2 19 -6
v -2 20 -6
v 2 0 -6
v 2 1 -6
v 2 19 -6
v 2 20 -6
v -2 1 -8
v -2 2 -8
v -2 18 -8
v -2 19 -8
v 2 1 -8
v 2 2 -8
v 2 18 -8
v 2 19 -8
v -2 2 -9
v -2 4 -9
v -2 16 -9
v -2 18 -9
v 2 2 -9
v 2 4 -9
v 2 16 -9
v 2 18 -9
v -2 4 -10
v -2 6 -10
v -2 14 -10
v -2 16 -10
v -1 6 -10
v -1 14 -10
v 1 6 -10
v 1 14 -10
v 2 4 -10
v 2 6 -10
v 2 14 -10
v 2 16 -10
v -2 0 6
v 2 0 6
v -2 0 4
v -1 0 4
v 1 0 4
v 2 0 4
v -2 0 -4
v -1 0 -4
v 1 0 -4
v 2 0 -4
v -2 0 -6
v 2 0 -6
v -2 1 8
v 2 1 8
v -2 1 6
v 2 1 6
v -2 1 -6
v 2 1 -6
v -2 1 -8
v 2 1 -8
v -2 2 9
v 2 2 9
v -2 2 8
v 2 2 8
v -2 2 -8
v 2 2 -8
v -2 2 -9
v 2 2 -9
v -2 4 10
v 2 4 10
v -2 4 9
v 2 4 9
v -2 4 -9
v 2 4 -9
v -2 4 -10
v 2 4 -10
v -2 16 10
v 2 16 10
v -2 16 9
v 2 16 9
v -2 16 -9
v 2 16 -9
v -2 16 -10
v 2 16 -10
v -2 18 9
v 2 18 9
v -2 18 8
v 2 18 8
v -2 18 -8
v 2 18 -8
v -2 18 -9
v 2 18 -9
v -2 19 8
v 2 19 8
v -2 19 6
v 2 19 6
v -2 19 -6
v 2 19 -6
v -2 19 -8
v 2 19 -8
v -2 20 6
v 2 20 6
v -2 20 4
v -1 20 4
v 1 20 4
v 2 20 4
v -2 20 -4
v -1 20 -4
v 1 20 -4
v 2 20 -4
v -2 20 -6
v 2 20 -6

# faces
f 6/3/1 2/3/1 1/3/1
f 7/1/1 3/1/1 2/1/1
f 7/3/1 2/3/1 6/3/1
f 8/1/1 3/1/1 7/1/1
f 9/1/1 3/1/1 8/1/1
f 10/3/1 4/3/1 3/3/1
f 10/1/1 3/1/1 9/1/1
f 11/3/1 4/3/1 10/3/1
f 14/3/1 6/3/1 5/3/1
f 15/3/1 6/3/1 14/3/1
f 16/1/1 7/1/1 6/1/1
f 16/3/1 6/3/1 15/3/1
f 16/1/1 8/1/1 7/1/1
f 17/1/1 8/1/1 16/1/1
f 18/2/1 9/2/1 8/2/1
f 18/1/1 8/1/1 17/1/1
f 19/1/1 10/1/1 9/1/1
f 19/2/1 9/2/1 18/2/1
f 19/1/1 11/1/1 10/1/1
f 20/1/1 11/1/1 19/1/1
f 21/3/1 12/3/1 11/3/1
f 21/1/1 11/1/1 20/1/1
f 22/3/1 12/3/1 21/3/1
f 23/3/1 12/3/1 22/3/1
f 25/3/1 15/3/1 14/3/1
f 25/3/1 14/3/1 13/3/1
f 26/1/1 17/1/1 16/1/1
f 26/3/1 15/3/1 25/3/1
f 26/1/1 16/1/1 15/1/1
f 27/1/1 17/1/1 26/1/1
f 28/2/1 18/2/1 17/2/1
f 28/1/1 17/1/1 27/1/1
f 29/4/1 19/4/1 18/4/1
f 29/2/1 18/2/1 28/2/1
f 30/2/1 20/2/1 19/2/1
f 30/4/1 19/4/1 29/4/1
f 31/1/1 22/1/1 21/1/1
f 31/2/1 20/2/1 30/2/1
f 31/1/1 21/1/1 20/1/1
f 32/1/1 22/1/1 31/1/1
f 33/3/1 24/3/1 23/3/1
f 33/1/1 22/1/1 32/1/1
f 33/3/1 23/3/1 22/3/1
f 34/3/1 24/3/1 33/3/1
f 36/3/1 25/3/1 13/3/1
f 37/1/1 27/1/1 26/1/1
f 37/1/1 26/1/1 25/1/1
f 37/3/1 25/3/1 36/3/1
f 38/1/1 27/1/1 37/1/1
f 39/2/1 28/2/1 27/2/1
f 39/1/1 27/1/1 38/1/1
f 40/4/1 29/4/1 28/4/1
f 40/2/1 28/2/1 39/2/1
f 40/4/1 31/4/1 30/4/1
f 40/4/1 30/4/1 29/4/1
f 41/2/1 32/2/1 31/2/1
f 41/4/1 31/4/1 40/4/1
f 42/1/1 34/1/1 33/1/1
f 42/2/1 32/2/1 41/2/1
f 42/1/1 33/1/1 32/1/1
f 43/1/1 34/1/1 42/1/1
f 44/3/1 24/3/1 34/3/1
f 44/1/1 34/1/1 43/1/1
f 45/3/1 24/3/1 44/3/1
f 47/1/1 37/1/1 36/1/1
f 47/1/1 38/1/1 37/1/1
f 48/2/1 39/2/1 38/2/1
f 48/1/1 38/1/1 47/1/1
f 49/4/1 40/4/1 39/4/1
f 49/2/1 39/2/1 48/2/1
f 49/4/1 41/4/1 40/4/1
f 49/4/1 42/4/1 41/4/1
f 50/4/1 42/4/1 49/4/1
f 51/4/1 42/4/1 50/4/1
f 52/4/1 42/4/1 51/4/1
f 53/4/1 42/4/1 52/4/1
f 54/2/1 43/2/1 42/2/1
f 54/4/1 42/4/1 53/4/1
f 55/1/1 44/1/1 43/1/1
f 55/2/1 43/2/1 54/2/1
f 55/1/1 45/1/1 44/1/1
f 56/1/1 45/1/1 55/1/1
f 57/3/1 36/3/1 35/3/1
f 58/1/1 47/1/1 36/1/1
f 58/3/1 36/3/1 57/3/1
f 59/1/1 47/1/1 58/1/1
f 60/2/1 48/2/1 47/2/1
f 60/1/1 47/1/1 59/1/1
f 61/4/1 49/4/1 48/4/1
f 61/2/1 48/2/1 60/2/1
f 61/4/1 50/4/1 49/4/1
f 62/5/1 51/5/1 50/5/1
f 62/4/1 50/4/1 61/4/1
f 63/4/1 52/4/1 51/4/1
f 63/5/1 51/5/1 62/5/1
f 64/5/1 53/5/1 52/5/1
f 64/4/1 52/4/1 63/4/1
f 65/4/1 54/4/1 53/4/1
f 65/5/1 53/5/1 64/5/1
f 65/4/1 55/4/1 54/4/1
f 66/2/1 56/2/1 55/2/1
f 66/4/1 55/4/1 65/4/1
f 67/1/1 45/1/1 56/1/1
f 67/2/1 56/2/1 66/2/1
f 68/1/1 45/1/1 67/1/1
f 69/3/1 46/3/1 45/3/1
f 69/1/1 45/1/1 68/1/1
f 70/3/1 46/3/1 69/3/1
f 71/4/1 63/4/1 62/4/1
f 71/4/1 62/4/1 61/4/1
f 71/4/1 61/4/1 60/4/1
f 72/4/1 63/4/1 71/4/1
f 73/4/1 66/4/1 65/4/1
f 73/4/1 65/4/1 64/4/1
f 73/4/1 67/4/1 66/4/1
f 74/4/1 67/4/1 73/4/1
f 75/5/1 72/5/1 71/5/1
f 75/4/1 71/4/1 60/4/1
f 76/4/1 63/4/1 72/4/1
f 76/5/1 72/5/1 75/5/1
f 77/5/1 64/5/1 63/5/1
f 77/4/1 63/4/1 76/4/1
f 78/4/1 73/4/1 64/4/1
f 78/5/1 64/5/1 77/5/1
f 79/5/1 74/5/1 73/5/1
f 79/4/1 73/4/1 78/4/1
f 80/4/1 67/4/1 74/4/1
f 80/5/1 74/5/1 79/5/1
f 81/4/1 75/4/1 60/4/1
f 81/4/1 76/4/1 75/4/1
f 82/5/1 79/5/1 78/5/1
f 82/4/1 76/4/1 81/4/1
f 82/5/1 78/5/1 77/5/1
f 82/5/1 77/5/1 76/5/1
f 83/5/1 79/5/1 82/5/1
f 84/5/1 79/5/1 83/5/1
f 85/4/1 80/4/1 79/4/1
f 85/5/1 79/5/1 84/5/1
f 86/4/1 67/4/1 80/4/1
f 86/4/1 80/4/1 85/4/1
f 87/4/1 81/4/1 60/4/1
f 87/5/1 82/5/1 81/5/1
f 88/4/1 83/4/1 82/4/1
f 88/5/1 82/5/1 87/5/1
f 89/4/1 85/4/1 84/4/1
f 89/5/1 86/5/1 85/5/1
f 90/4/1 67/4/1 86/4/1
f 90/5/1 86/5/1 89/5/1
f 91/4/1 83/4/1 88/4/1
f 91/4/1 88/4/1 87/4/1
f 92/5/1 84/5/1 83/5/1
f 92/4/1 83/4/1 91/4/1
f 93/4/1 89/4/1 84/4/1
f 93/5/1 84/5/1 92/5/1
f 93/4/1 90/4/1 89/4/1
f 94/4/1 90/4/1 93/4/1
f 95/4/1 91/4/1 87/4/1
f 95/5/1 92/5/1 91/5/1
f 96/4/1 93/4/1 92/4/1
f 96/5/1 92/5/1 95/5/1
f 97/5/1 94/5/1 93/5/1
f 97/4/1 93/4/1 96/4/1
f 98/4/1 90/4/1 94/4/1
f 98/5/1 94/5/1 97/5/1
f 99/1/1 59/1/1 58/1/1
f 99/2/1 60/2/1 59/2/1
f 99/1/1 58/1/1 57/1/1
f 100/4/1 97/4/1 96/4/1
f 100/2/1 60/2/1 99/2/1
f 100/4/1 98/4/1 97/4/1
f 100/4/1 87/4/1 60/4/1
f 100/4/1 96/4/1 95/4/1
f 100/4/1 95/4/1 87/4/1
f 101/4/1 98/4/1 100/4/1
f 102/4/1 90/4/1 98/4/1
f 102/4/1 98/4/1 101/4/1
f 102/4/1 67/4/1 90/4/1
f 103/2/1 68/2/1 67/2/1
f 103/4/1 67/4/1 102/4/1
f 104/1/1 70/1/1 69/1/1
f 104/2/1 68/2/1 103/2/1
f 104/1/1 69/1/1 68/1/1
f 105/1/1 100/1/1 99/1/1
f 105/1/1 99/1/1 57/1/1
f 106/1/1 100/1/1 105/1/1
f 107/2/1 101/2/1 100/2/1
f 107/1/1 100/1/1 106/1/1
f 108/4/1 102/4/1 101/4/1
f 108/2/1 101/2/1 107/2/1
f 109/2/1 103/2/1 102/2/1
f 109/4/1 102/4/1 108/4/1
f 110/1/1 104/1/1 103/1/1
f 110/2/1 103/2/1 109/2/1
f 111/1/1 70/1/1 104/1/1
f 111/1/1 104/1/1 110/1/1
f 112/1/1 70/1/1 111/1/1
f 113/1/1 107/1/1 106/1/1
f 113/2/1 109/2/1 108/2/1
f 113/1/1 108/1/1 107/1/1
f 114/1/1 110/1/1 109/1/1
f 114/2/1 109/2/1 113/2/1
f 114/1/1 111/1/1 110/1/1
f 115/3/1 106/3/1 105/3/1
f 116/1/1 113/1/1 106/1/1
f 116/3/1 106/3/1 115/3/1
f 116/1/1 114/1/1 113/1/1
f 117/1/1 114/1/1 116/1/1
f 118/1/1 111/1/1 114/1/1
f 118/1/1 114/1/1 117/1/1
f 119/3/1 112/3/1 111/3/1
f 119/1/1 111/1/1 118/1/1
f 120/3/1 112/3/1 119/3/1
f 121/3/1 117/3/1 116/3/1
f 121/1/1 118/1/1 117/1/1
f 122/1/1 118/1/1 121/1/1
f 123/1/1 118/1/1 122/1/1
f 124/3/1 119/3/1 118/3/1
f 124/1/1 118/1/1 123/1/1
f 125/3/1 121/3/1 116/3/1
f 125/3/1 122/3/1 121/3/1
f 126/3/1 122/3/1 125/3/1
f 127/1/1 123/1/1 122/1/1
f 127/3/1 122/3/1 126/3/1
f 128/1/1 123/1/1 127/1/1
f 129/1/1 123/1/1 128/1/1
f 130/3/1 124/3/1 123/3/1
f 130/1/1 123/1/1 129/1/1
f 131/3/1 119/3/1 124/3/1
f 131/3/1 124/3/1 130/3/1
f 132/3/1 119/3/1 131/3/1
f 133/3/1 127/3/1 126/3/1
f 133/3/1 128/3/1 127/3/1
f 134/1/1 129/1/1 128/1/1
f 134/3/1 128/3/1 133/3/1
f 135/1/1 129/1/1 134/1/1
f 136/1/1 129/1/1 135/1/1
f 137/3/1 130/3/1 129/3/1
f 137/1/1 129/1/1 136/1/1
f 137/3/1 131/3/1 130/3/1
f 138/3/1 131/3/1 137/3/1
f 139/3/1 135/3/1 134/3/1
f 140/1/1 136/1/1 135/1/1
f 140/3/1 135/3/1 139/3/1
f 141/3/1 137/3/1 136/3/1
f 141/1/1 136/1/1 140/1/1
f 142/3/1 137/3/1 141/3/1
f 143/3/2 144/3/2 148/3/2
f 144/1/2 145/1/2 149/1/2
f 148/3/2 144/3/2 149/3/2
f 149/1/2 145/1/2 150/1/2
f 150/1/2 145/1/2 151/1/2
f 145/3/2 146/3/2 152/3/2
f 151/1/2 145/1/2 152/1/2
f 152/3/2 146/3/2 153/3/2
f 147/3/2 148/3/2 156/3/2
f 156/3/2 148/3/2 157/3/2
f 148/1/2 149/1/2 158/1/2
f 157/3/2 148/3/2 158/3/2
f 149/1/2 150/1/2 158/1/2
f 158/1/2 150/1/2 159/1/2
f 150/2/2 151/2/2 160/2/2
f 159/1/2 150/1/2 160/1/2
f 151/1/2 152/1/2 161/1/2
f 160/2/2 151/2/2 161/2/2
f 152/1/2 153/1/2 161/1/2
f 161/1/2 153/1/2 162/1/2
f 153/3/2 154/3/2 163/3/2
f 162/1/2 153/1/2 163/1/2
f 163/3/2 154/3/2 164/3/2
f 164/3/2 154/3/2 165/3/2
f 156/3/2 157/3/2 167/3/2
f 155/3/2 156/3/2 167/3/2
f 158/1/2 159/1/2 168/1/2
f 167/3/2 157/3/2 168/3/2
f 157/1/2 158/1/2 168/1/2
f 168/1/2 159/1/2 169/1/2
f 159/2/2 160/2/2 170/2/2
f 169/1/2 159/1/2 170/1/2
f 160/4/2 161/4/2 171/4/2
f 170/2/2 160/2/2 171/2/2
f 161/2/2 162/2/2 172/2/2
f 171/4/2 161/4/2 172/4/2
f 163/1/2 164/1/2 173/1/2
f 172/2/2 162/2/2 173/2/2
f 162/1/2 163/1/2 173/1/2
f 173/1/2 164/1/2 174/1/2
f 165/3/2 166/3/2 175/3/2
f 174/1/2 164/1/2 175/1/2
f 164/3/2 165/3/2 175/3/2
f 175/3/2 166/3/2 176/3/2
f 155/3/2 167/3/2 178/3/2
f 168/1/2 169/1/2 179/1/2
f 167/1/2 168/1/2 179/1/2
f 178/3/2 167/3/2 179/3/2
f 179/1/2 169/1/2 180/1/2
f 169/2/2 170/2/2 181/2/2
f 180/1/2 169/1/2 181/1/2
f 170/4/2 171/4/2 182/4/2
f 181/2/2 170/2/2 182/2/2
f 172/4/2 173/4/2 182/4/2
f 171/4/2 172/4/2 182/4/2
f 173/2/2 174/2/2 183/2/2
f 182/4/2 173/4/2 183/4/2
f 175/1/2 176/1/2 184/1/2
f 183/2/2 174/2/2 184/2/2
f 174/1/2 175/1/2 184/1/2
f 184/1/2 176/1/2 185/1/2
f 176/3/2 166/3/2 186/3/2
f 185/1/2 176/1/2 186/1/2
f 186/3/2 166/3/2 187/3/2
f 178/1/2 179/1/2 189/1/2
f 179/1/2 180/1/2 189/1/2
f 180/2/2 181/2/2 190/2/2
f 189/1/2 180/1/2 190/1/2
f 181/4/2 182/4/2 191/4/2
f 190/2/2 181/2/2 191/2/2
f 182/4/2 183/4/2 191/4/2
f 183/4/2 184/4/2 191/4/2
f 191/4/2 184/4/2 192/4/2
f 192/4/2 184/4/2 193/4/2
f 193/4/2 184/4/2 194/4/2
f 194/4/2 184/4/2 195/4/2
f 184/2/2 185/2/2 196/2/2
f 195/4/2 184/4/2 196/4/2
f 185/1/2 186/1/2 197/1/2
f 196/2/2 185/2/2 197/2/2
f 186/1/2 187/1/2 197/1/2
f 197/1/2 187/1/2 198/1/2
f 177/3/2 178/3/2 199/3/2
f 178/1/2 189/1/2 200/1/2
f 199/3/2 178/3/2 200/3/2
f 200/1/2 189/1/2 201/1/2
f 189/2/2 190/2/2 202/2/2
f 201/1/2 189/1/2 202/1/2
f 190/4/2 191/4/2 203/4/2
f 202/2/2 190/2/2 203/2/2
f 191/4/2 192/4/2 203/4/2
f 192/5/2 193/5/2 204/5/2
f 203/4/2 192/4/2 204/4/2
f 193/4/2 194/4/2 205/4/2
f 204/5/2 193/5/2 205/5/2
f 194/5/2 195/5/2 206/5/2
f 205/4/2 194/4/2 206/4/2
f 195/4/2 196/4/2 207/4/2
f 206/5/2 195/5/2 207/5/2
f 196/4/2 197/4/2 207/4/2
f 197/2/2 198/2/2 208/2/2
f 207/4/2 197/4/2 208/4/2
f 198/1/2 187/1/2 209/1/2
f 208/2/2 198/2/2 209/2/2
f 209/1/2 187/1/2 210/1/2
f 187/3/2 188/3/2 211/3/2
f 210/1/2 187/1/2 211/1/2
f 211/3/2 188/3/2 212/3/2
f 204/4/2 205/4/2 213/4/2
f 203/4/2 204/4/2 213/4/2
f 202/4/2 203/4/2 213/4/2
f 213/4/2 205/4/2 214/4/2
f 207/4/2 208/4/2 215/4/2
f 206/4/2 207/4/2 215/4/2
f 208/4/2 209/4/2 215/4/2
f 215/4/2 209/4/2 216/4/2
f 213/5/2 214/5/2 217/5/2
f 202/4/2 213/4/2 217/4/2
f 214/4/2 205/4/2 218/4/2
f 217/5/2 214/5/2 218/5/2
f 205/5/2 206/5/2 219/5/2
f 218/4/2 205/4/2 219/4/2
f 206/4/2 215/4/2 220/4/2
f 219/5/2 206/5/2 220/5/2
f 215/5/2 216/5/2 221/5/2
f 220/4/2 215/4/2 221/4/2
f 216/4/2 209/4/2 222/4/2
f 221/5/2 216/5/2 222/5/2
f 202/4/2 217/4/2 223/4/2
f 217/4/2 218/4/2 223/4/2
f 220/5/2 221/5/2 224/5/2
f 223/4/2 218/4/2 224/4/2
f 219/5/2 220/5/2 224/5/2
f 218/5/2 219/5/2 224/5/2
f 224/5/2 221/5/2 225/5/2
f 225/5/2 221/5/2 226/5/2
f 221/4/2 222/4/2 227/4/2
f 226/5/2 221/5/2 227/5/2
f 222/4/2 209/4/2 228/4/2
f 227/4/2 222/4/2 228/4/2
f 202/4/2 223/4/2 229/4/2
f 223/5/2 224/5/2 229/5/2
f 224/4/2 225/4/2 230/4/2
f 229/5/2 224/5/2 230/5/2
f 226/4/2 227/4/2 231/4/2
f 227/5/2 228/5/2 231/5/2
f 228/4/2 209/4/2 232/4/2
f 231/5/2 228/5/2 232/5/2
f 230/4/2 225/4/2 233/4/2
f 229/4/2 230/4/2 233/4/2
f 225/5/2 226/5/2 234/5/2
f 233/4/2 225/4/2 234/4/2
f 226/4/2 231/4/2 235/4/2
f 234/5/2 226/5/2 235/5/2
f 231/4/2 232/4/2 235/4/2
f 235/4/2 232/4/2 236/4/2
f 229/4/2 233/4/2 237/4/2
f 233/5/2 234/5/2 237/5/2
f 234/4/2 235/4/2 238/4/2
f 237/5/2 234/5/2 238/5/2
f 235/5/2 236/5/2 239/5/2
f 238/4/2 235/4/2 239/4/2
f 236/4/2 232/4/2 240/4/2
f 239/5/2 236/5/2 240/5/2
f 200/1/2 201/1/2 241/1/2
f 201/2/2 202/2/2 241/2/2
f 199/1/2 200/1/2 241/1/2
f 238/4/2 239/4/2 242/4/2
f 241/2/2 202/2/2 242/2/2
f 239/4/2 240/4/2 242/4/2
f 202/4/2 229/4/2 242/4/2
f 237/4/2 238/4/2 242/4/2
f 229/4/2 237/4/2 242/4/2
f 242/4/2 240/4/2 243/4/2
f 240/4/2 232/4/2 244/4/2
f 243/4/2 240/4/2 244/4/2
f 232/4/2 209/4/2 244/4/2
f 209/2/2 210/2/2 245/2/2
f 244/4/2 209/4/2 245/4/2
f 211/1/2 212/1/2 246/1/2
f 245/2/2 210/2/2 246/2/2
f 210/1/2 211/1/2 246/1/2
f 241/1/2 242/1/2 247/1/2
f 199/1/2 241/1/2 247/1/2
f 247/1/2 242/1/2 248/1/2
f 242/2/2 243/2/2 249/2/2
f 248/1/2 242/1/2 249/1/2
f 243/4/2 244/4/2 250/4/2
f 249/2/2 243/2/2 250/2/2
f 244/2/2 245/2/2 251/2/2
f 250/4/2 244/4/2 251/4/2
f 245/1/2 246/1/2 252/1/2
f 251/2/2 245/2/2 252/2/2
f 246/1/2 212/1/2 253/1/2
f 252/1/2 246/1/2 253/1/2
f 253/1/2 212/1/2 254/1/2
f 248/1/2 249/1/2 255/1/2
f 250/2/2 251/2/2 255/2/2
f 249/1/2 250/1/2 255/1/2
f 251/1/2 252/1/2 256/1/2
f 255/2/2 251/2/2 256/2/2
f 252/1/2 253/1/2 256/1/2
f 247/3/2 248/3/2 257/3/2
f 248/1/2 255/1/2 258/1/2
f 257/3/2 248/3/2 258/3/2
f 255/1/2 256/1/2 258/1/2
f 258/1/2 256/1/2 259/1/2
f 256/1/2 253/1/2 260/1/2
f 259/1/2 256/1/2 260/1/2
f 253/3/2 254/3/2 261/3/2
f 260/1/2 253/1/2 261/1/2
f 261/3/2 254/3/2 262/3/2
f 258/3/2 259/3/2 263/3/2
f 259/1/2 260/1/2 263/1/2
f 263/1/2 260/1/2 264/1/2
f 264/1/2 260/1/2 265/1/2
f 260/3/2 261/3/2 266/3/2
f 265/1/2 260/1/2 266/1/2
f 258/3/2 263/3/2 267/3/2
f 263/3/2 264/3/2 267/3/2
f 267/3/2 264/3/2 268/3/2
f 264/1/2 265/1/2 269/1/2
f 268/3/2 264/3/2 269/3/2
f 269/1/2 265/1/2 270/1/2
f 270/1/2 265/1/2 271/1/2
f 265/3/2 266/3/2 272/3/2
f 271/1/2 265/1/2 272/1/2
f 266/3/2 261/3/2 273/3/2
f 272/3/2 266/3/2 273/3/2
f 273/3/2 261/3/2 274/3/2
f 268/3/2 269/3/2 275/3/2
f 269/3/2 270/3/2 275/3/2
f 270/1/2 271/1/2 276/1/2
f 275/3/2 270/3/2 276/3/2
f 276/1/2 271/1/2 277/1/2
f 277/1/2 271/1/2 278/1/2
f 271/3/2 272/3/2 279/3/2
f 278/1/2 271/1/2 279/1/2
f 272/3/2 273/3/2 279/3/2
f 279/3/2 273/3/2 280/3/2
f 276/3/2 277/3/2 281/3/2
f 277/1/2 278/1/2 282/1/2
f 281/3/2 277/3/2 282/3/2
f 278/3/2 279/3/2 283/3/2
f 282/1/2 278/1/2 283/1/2
f 283/3/2 279/3/2 284/3/2
f 289/3/3 286/3/3 285/3/3
f 289/1/3 287/1/3 286/1/3
f 290/3/3 288/3/3 287/3/3
f 290/1/3 287/1/3 289/1/3
f 291/3/3 289/3/3 285/3/3
f 291/3/3 290/3/3 289/3/3
f 292/3/3 288/3/3 290/3/3
f 292/3/3 290/3/3 291/3/3
f 293/3/3 291/3/3 285/3/3
f 294/1/3 292/1/3 291/1/3
f 294/3/3 291/3/3 293/3/3
f 295/3/3 288/3/3 292/3/3
f 295/1/3 292/1/3 294/1/3
f 296/3/3 288/3/3 295/3/3
f 301/3/3 298/3/3 297/3/3
f 302/3/3 298/3/3 301/3/3
f 303/3/3 300/3/3 299/3/3
f 304/3/3 300/3/3 303/3/3
f 309/3/3 306/3/3 305/3/3
f 310/3/3 306/3/3 309/3/3
f 311/3/3 308/3/3 307/3/3
f 312/3/3 308/3/3 311/3/3
f 317/3/3 314/3/3 313/3/3
f 318/3/3 314/3/3 317/3/3
f 319/3/3 316/3/3 315/3/3
f 320/3/3 316/3/3 319/3/3
f 321/3/4 322/3/4 325/3/4
f 325/3/4 322/3/4 326/3/4
f 323/3/4 324/3/4 327/3/4
f 327/3/4 324/3/4 328/3/4
f 329/3/4 330/3/4 333/3/4
f 333/3/4 330/3/4 334/3/4
f 331/3/4 332/3/4 335/3/4
f 335/3/4 332/3/4 336/3/4
f 337/3/4 338/3/4 341/3/4
f 341/3/4 338/3/4 342/3/4
f 339/3/4 340/3/4 343/3/4
f 343/3/4 340/3/4 344/3/4
f 345/3/4 346/3/4 349/3/4
f 346/1/4 347/1/4 349/1/4
f 347/3/4 348/3/4 350/3/4
f 349/1/4 347/1/4 350/1/4
f 345/3/4 349/3/4 351/3/4
f 349/3/4 350/3/4 351/3/4
f 350/3/4 348/3/4 352/3/4
f 351/3/4 350/3/4 352/3/4
f 345/3/4 351/3/4 353/3/4
f 351/1/4 352/1/4 354/1/4
f 353/3/4 351/3/4 354/3/4
f 352/3/4 348/3/4 355/3/4
f 354/1/4 352/1/4 355/1/4
f 355/3/4 348/3/4 356/3/4
f 359/3/5 358/3/5 357/3/5
f 360/3/5 358/3/5 359/3/5
f 361/3/5 358/3/5 360/3/5
f 362/3/5 358/3/5 361/3/5
f 363/1/5 360/1/5 359/1/5
f 364/3/5 361/3/5 360/3/5
f 364/1/5 360/1/5 363/1/5
f 365/1/5 362/1/5 361/1/5
f 365/3/5 361/3/5 364/3/5
f 366/1/5 362/1/5 365/1/5
f 367/3/5 364/3/5 363/3/5
f 367/3/5 365/3/5 364/3/5
f 367/3/5 366/3/5 365/3/5
f 368/3/5 366/3/5 367/3/5
f 371/3/5 370/3/5 369/3/5
f 372/3/5 370/3/5 371/3/5
f 375/3/5 374/3/5 373/3/5
f 376/3/5 374/3/5 375/3/5
f 379/3/5 378/3/5 377/3/5
f 380/3/5 378/3/5 379/3/5
f 383/3/5 382/3/5 381/3/5
f 384/3/5 382/3/5 383/3/5
f 387/3/5 386/3/5 385/3/5
f 388/3/5 386/3/5 387/3/5
f 391/3/5 390/3/5 389/3/5
f 392/3/5 390/3/5 391/3/5
f 393/3/6 394/3/6 395/3/6
f 395/3/6 394/3/6 396/3/6
f 397/3/6 398/3/6 399/3/6
f 399/3/6 398/3/6 400/3/6
f 401/3/6 402/3/6 403/3/6
f 403/3/6 402/3/6 404/3/6
f 405/3/6 406/3/6 407/3/6
f 407/3/6 406/3/6 408/3/6
f 409/3/6 410/3/6 411/3/6
f 411/3/6 410/3/6 412/3/6
f 413/3/6 414/3/6 415/3/6
f 415/3/6 414/3/6 416/3/6
f 417/3/6 418/3/6 419/3/6
f 419/3/6 418/3/6 420/3/6
f 420/3/6 418/3/6 421/3/6
f 421/3/6 418/3/6 422/3/6
f 419/1/6 420/1/6 423/1/6
f 420/3/6 421/3/6 424/3/6
f 423/1/6 420/1/6 424/1/6
f 421/1/6 422/1/6 425/1/6
f 424/3/6 421/3/6 425/3/6
f 425/1/6 422/1/6 426/1/6
f 423/3/6 424/3/6 427/3/6
f 424/3/6 425/3/6 427/3/6
f 425/3/6 426/3/6 427/3/6
f 427/3/6 426/3/6 428/3/6
