# MagicaVoxel @ Ephtracy

# material
mtllib speedboost.mtl
usemtl palette

# normals
vn -1 0 0
vn 1 0 0
vn 0 0 1
vn 0 0 -1
vn 0 -1 0
vn 0 1 0

# texcoords
vt 0.00195312 0.5
vt 0.0605469 0.5
vt 0.244141 0.5
vt 0.341797 0.5
vt 0.439453 0.5

# verts
v -2 0 6
v -2 0 4
v -2 0 -4
v -2 0 -6
v -2 1 8
v -2 1 6
v -2 1 4
v -2 1 -4
v -2 1 -6
v -2 1 -8
v -2 2 9
v -2 2 8
v -2 2 7
v -2 2 6
v -2 2 -6
v -2 2 -7
v -2 2 -8
v -2 2 -9
v -2 3 8
v -2 3 7
v -2 3 -7
v -2 3 -8
v -2 4 10
v -2 4 9
v -2 4 8
v -2 4 5
v -2 4 -6
v -2 4 -8
v -2 4 -9
v -2 4 -10
v -2 5 4
v -2 5 -6
v -2 5 -7
v -2 6 10
v -2 6 9
v -2 6 7
v -2 6 5
v -2 6 -9
v -2 6 -10
v -2 7 8
v -2 7 7
v -2 7 4
v -2 7 2
v -2 8 9
v -2 8 8
v -2 8 7
v -2 8 4
v -2 8 2
v -2 8 -1
v -2 8 -2
v -2 8 -3
v -2 8 -4
v -2 9 10
v -2 9 9
v -2 9 8
v -2 9 -1
v -2 9 -2
v -2 9 -3
v -2 9 -4
v -2 9 -5
v -2 10 6
v -2 10 3
v -2 10 -1
v -2 10 -2
v -2 10 -3
v -2 10 -4
v -2 10 -5
v -2 10 -6
v -2 10 -7
v -2 11 7
v -2 11 6
v -2 11 3
v -2 11 -2
v -2 11 -6
v -2 12 10
v -2 12 9
v -2 12 8
v -2 12 7
v -2 12 6
v -2 13 9
v -2 13 8
v -2 13 2
v -2 14 10
v -2 14 9
v -2 14 8
v -2 14 5
v -2 14 4
v -2 14 2
v -2 14 -1
v -2 14 -4
v -2 14 -5
v -2 14 -9
v -2 14 -10
v -2 15 4
v -2 15 -1
v -2 15 -3
v -2 15 -4
v -2 15 -5
v -2 15 -6
v -2 16 10
v -2 16 9
v -2 16 8
v -2 16 5
v -2 16 -2
v -2 16 -3
v -2 16 -4
v -2 16 -5
v -2 16 -6
v -2 16 -8
v -2 16 -9
v -2 16 -10
v -2 17 8
v -2 17 7
v -2 17 -4
v -2 17 -5
v -2 17 -7
v -2 17 -8
v -2 18 9
v -2 18 8
v -2 18 7
v -2 18 6
v -2 18 -6
v -2 18 -7
v -2 18 -8
v -2 18 -9
v -2 19 8
v -2 19 6
v -2 19 4
v -2 19 -4
v -2 19 -6
v -2 19 -8
v -2 20 6
v -2 20 4
v -2 20 -4
v -2 20 -6
v 2 0 6
v 2 0 4
v 2 0 -4
v 2 0 -6
v 2 1 8
v 2 1 6
v 2 1 4
v 2 1 -4
v 2 1 -6
v 2 1 -8
v 2 2 9
v 2 2 8
v 2 2 7
v 2 2 6
v 2 2 -6
v 2 2 -7
v 2 2 -8
v 2 2 -9
v 2 3 8
v 2 3 7
v 2 3 -7
v 2 3 -8
v 2 4 10
v 2 4 9
v 2 4 8
v 2 4 5
v 2 4 -6
v 2 4 -8
v 2 4 -9
v 2 4 -10
v 2 5 4
v 2 5 -6
v 2 5 -7
v 2 6 10
v 2 6 9
v 2 6 7
v 2 6 5
v 2 6 -9
v 2 6 -10
v 2 7 8
v 2 7 7
v 2 7 4
v 2 7 2
v 2 8 9
v 2 8 8
v 2 8 7
v 2 8 4
v 2 8 2
v 2 8 -1
v 2 8 -2
v 2 8 -3
v 2 8 -4
v 2 9 10
v 2 9 9
v 2 9 8
v 2 9 -1
v 2 9 -2
v 2 9 -3
v 2 9 -4
v 2 9 -5
v 2 10 6
v 2 10 3
v 2 10 -1
v 2 10 -2
v 2 10 -3
v 2 10 -4
v 2 10 -5
v 2 10 -6
v 2 10 -7
v 2 11 7
v 2 11 6
v 2 11 3
v 2 11 -2
v 2 11 -6
v 2 12 10
v 2 12 9
v 2 12 8
v 2 12 7
v 2 12 6
v 2 13 9
v 2 13 8
v 2 13 2
v 2 14 10
v 2 14 9
v 2 14 8
v 2 14 5
v 2 14 4
v 2 14 2
v 2 14 -1
v 2 14 -4
v 2 14 -5
v 2 14 -9
v 2 14 -10
v 2 15 4
v 2 15 -1
v 2 15 -3
v 2 15 -4
v 2 15 -5
v 2 15 -6
v 2 16 10
v 2 16 9
v 2 16 8
v 2 16 5
v 2 16 -2
v 2 16 -3
v 2 16 -4
v 2 16 -5
v 2 16 -6
v 2 16 -8
v 2 16 -9
v 2 16 -10
v 2 17 8
v 2 17 7
v 2 17 -4
v 2 17 -5
v 2 17 -7
v 2 17 -8
v 2 18 9
v 2 18 8
v 2 18 7
v 2 18 6
v 2 18 -6
v 2 18 -7
v 2 18 -8
v 2 18 -9
v 2 19 8
v 2 19 6
v 2 19 4
v 2 19 -4
v 2 19 -6
v 2 19 -8
v 2 20 6
v 2 20 4
v 2 20 -4
v 2 20 -6
v -2 4 10
v -2 6 10
v -2 9 10
v -2 12 10
v -2 14 10
v -2 16 10
v -1 6 10
v -1 9 10
v -1 12 10
v -1 14 10
v 1 6 10
v 1 9 10
v 1 12 10
v 1 14 10
v 2 4 10
v 2 6 10
v 2 9 10
v 2 12 10
v 2 14 10
v 2 16 10
v -2 2 9
v -2 4 9
v -2 16 9
v -2 18 9
v 2 2 9
v 2 4 9
v 2 16 9
v 2 18 9
v -2 1 8
v -2 2 8
v -2 18 8
v -2 19 8
v 2 1 8
v 2 2 8
v 2 18 8
v 2 19 8
v -2 0 6
v -2 1 6
v -2 19 6
v -2 20 6
v 2 0 6
v 2 1 6
v 2 19 6
v 2 20 6
v -2 0 -6
v -2 1 -6
v -2 19 -6
v -2 20 -6
v 2 0 -6
v 2 1 -6
v 2 19 -6
v 2 20 -6
v -2 1 -8
v -2 2 -8
v -2 18 -8
v -2 19 -8
v 2 1 -8
v 2 2 -8
v 2 18 -8
v 2 19 -8
v -2 2 -9
v -2 4 -9
v -2 16 -9
v -2 18 -9
v 2 2 -9
v 2 4 -9
v 2 16 -9
v 2 18 -9
v -2 4 -10
v -2 6 -10
v -2 14 -10
v -2 16 -10
v -1 6 -10
v -1 14 -10
v 1 6 -10
v 1 14 -10
v 2 4 -10
v 2 6 -10
v 2 14 -10
v 2 16 -10
v -2 0 6
v 2 0 6
v -2 0 4
v -1 0 4
v 1 0 4
v 2 0 4
v -2 0 -4
v -1 0 -4
v 1 0 -4
v 2 0 -4
v -2 0 -6
v 2 0 -6
v -2 1 8
v 2 1 8
v -2 1 6
v 2 1 6
v -2 1 -6
v 2 1 -6
v -2 1 -8
v 2 1 -8
v -2 2 9
v 2 2 9
v -2 2 8
v 2 2 8
v -2 2 -8
v 2 2 -8
v -2 2 -9
v 2 2 -9
v -2 4 10
v 2 4 10
v -2 4 9
v 2 4 9
v -2 4 -9
v 2 4 -9
v -2 4 -10
v 2 4 -10
v -2 16 10
v 2 16 10
v -2 16 9
v 2 16 9
v -2 16 -9
v 2 16 -9
v -2 16 -10
v 2 16 -10
v -2 18 9
v 2 18 9
v -2 18 8
v 2 18 8
v -2 18 -8
v 2 18 -8
v -2 18 -9
v 2 18 -9
v -2 19 8
v 2 19 8
v -2 19 6
v 2 19 6
v -2 19 -6
v 2 19 -6
v -2 19 -8
v 2 19 -8
v -2 20 6
v 2 20 6
v -2 20 4
v -1 20 4
v 1 20 4
v 2 20 4
v -2 20 -4
v -1 20 -4
v 1 20 -4
v 2 20 -4
v -2 20 -6
v 2 20 -6

# faces
f 6/2/1 2/2/1 1/2/1
f 7/1/1 3/1/1 2/1/1
f 7/2/1 2/2/1 6/2/1
f 8/2/1 4/2/1 3/2/1
f 8/1/1 3/1/1 7/1/1
f 9/2/1 4/2/1 8/2/1
f 12/2/1 6/2/1 5/2/1
f 13/2/1 6/2/1 12/2/1
f 14/1/1 7/1/1 6/1/1
f 14/2/1 6/2/1 13/2/1
f 14/1/1 8/1/1 7/1/1
f 14/1/1 9/1/1 8/1/1
f 15/2/1 10/2/1 9/2/1
f 15/1/1 9/1/1 14/1/1
f 16/2/1 10/2/1 15/2/1
f 17/2/1 10/2/1 16/2/1
f 19/2/1 13/2/1 12/2/1
f 19/2/1 12/2/1 11/2/1
f 20/1/1 14/1/1 13/1/1
f 20/2/1 13/2/1 19/2/1
f 20/1/1 15/1/1 14/1/1
f 20/1/1 16/1/1 15/1/1
f 21/2/1 18/2/1 17/2/1
f 21/1/1 16/1/1 20/1/1
f 21/2/1 17/2/1 16/2/1
f 22/2/1 18/2/1 21/2/1
f 24/2/1 19/2/1 11/2/1
f 25/1/1 20/1/1 19/1/1
f 25/1/1 21/1/1 20/1/1
f 25/2/1 19/2/1 24/2/1
f 25/1/1 22/1/1 21/1/1
f 26/1/1 22/1/1 25/1/1
f 27/1/1 22/1/1 26/1/1
f 28/2/1 18/2/1 22/2/1
f 28/1/1 22/1/1 27/1/1
f 29/2/1 18/2/1 28/2/1
f 31/2/1 27/2/1 26/2/1
f 32/1/1 28/1/1 27/1/1
f 32/2/1 27/2/1 31/2/1
f 32/1/1 29/1/1 28/1/1
f 33/1/1 29/1/1 32/1/1
f 34/2/1 24/2/1 23/2/1
f 35/1/1 25/1/1 24/1/1
f 35/2/1 24/2/1 34/2/1
f 35/1/1 26/1/1 25/1/1
f 36/1/1 26/1/1 35/1/1
f 37/2/1 31/2/1 26/2/1
f 37/1/1 26/1/1 36/1/1
f 38/1/1 29/1/1 33/1/1
f 38/2/1 30/2/1 29/2/1
f 39/2/1 30/2/1 38/2/1
f 40/1/1 36/1/1 35/1/1
f 40/1/1 35/1/1 34/1/1
f 41/2/1 37/2/1 36/2/1
f 41/1/1 36/1/1 40/1/1
f 42/2/1 31/2/1 37/2/1
f 42/2/1 37/2/1 41/2/1
f 42/5/1 32/5/1 31/5/1
f 43/5/1 32/5/1 42/5/1
f 44/1/1 40/1/1 34/1/1
f 45/2/1 41/2/1 40/2/1
f 45/1/1 40/1/1 44/1/1
f 46/3/1 42/3/1 41/3/1
f 46/2/1 41/2/1 45/2/1
f 47/2/1 43/2/1 42/2/1
f 47/3/1 42/3/1 46/3/1
f 48/5/1 32/5/1 43/5/1
f 48/2/1 43/2/1 47/2/1
f 49/5/1 32/5/1 48/5/1
f 50/5/1 32/5/1 49/5/1
f 51/5/1 32/5/1 50/5/1
f 52/5/1 32/5/1 51/5/1
f 53/1/1 44/1/1 34/1/1
f 54/2/1 45/2/1 44/2/1
f 54/1/1 44/1/1 53/1/1
f 55/3/1 47/3/1 46/3/1
f 55/2/1 45/2/1 54/2/1
f 55/3/1 46/3/1 45/3/1
f 55/3/1 48/3/1 47/3/1
f 56/5/1 49/5/1 48/5/1
f 56/4/1 50/4/1 49/4/1
f 57/5/1 51/5/1 50/5/1
f 57/4/1 50/4/1 56/4/1
f 58/4/1 52/4/1 51/4/1
f 58/5/1 51/5/1 57/5/1
f 59/5/1 32/5/1 52/5/1
f 59/4/1 52/4/1 58/4/1
f 60/5/1 32/5/1 59/5/1
f 61/3/1 48/3/1 55/3/1
f 61/3/1 55/3/1 54/3/1
f 62/3/1 48/3/1 61/3/1
f 63/5/1 57/5/1 56/5/1
f 63/5/1 56/5/1 48/5/1
f 64/4/1 58/4/1 57/4/1
f 64/5/1 57/5/1 63/5/1
f 65/5/1 59/5/1 58/5/1
f 65/4/1 58/4/1 64/4/1
f 66/4/1 60/4/1 59/4/1
f 66/5/1 59/5/1 65/5/1
f 67/5/1 32/5/1 60/5/1
f 67/4/1 60/4/1 66/4/1
f 68/2/1 33/2/1 32/2/1
f 68/5/1 32/5/1 67/5/1
f 69/1/1 38/1/1 33/1/1
f 69/2/1 33/2/1 68/2/1
f 69/1/1 39/1/1 38/1/1
f 70/3/1 61/3/1 54/3/1
f 71/2/1 62/2/1 61/2/1
f 71/3/1 61/3/1 70/3/1
f 72/3/1 48/3/1 62/3/1
f 72/2/1 62/2/1 71/2/1
f 73/2/1 67/2/1 66/2/1
f 73/2/1 68/2/1 67/2/1
f 73/2/1 66/2/1 65/2/1
f 73/2/1 65/2/1 64/2/1
f 73/2/1 64/2/1 63/2/1
f 74/1/1 69/1/1 68/1/1
f 74/2/1 68/2/1 73/2/1
f 75/2/1 54/2/1 53/2/1
f 76/3/1 70/3/1 54/3/1
f 76/2/1 54/2/1 75/2/1
f 77/3/1 70/3/1 76/3/1
f 78/2/1 71/2/1 70/2/1
f 78/3/1 70/3/1 77/3/1
f 79/3/1 72/3/1 71/3/1
f 79/2/1 71/2/1 78/2/1
f 80/2/1 77/2/1 76/2/1
f 80/1/1 76/1/1 75/1/1
f 81/3/1 78/3/1 77/3/1
f 81/2/1 77/2/1 80/2/1
f 81/3/1 79/3/1 78/3/1
f 82/5/1 63/5/1 48/5/1
f 82/3/1 79/3/1 81/3/1
f 82/3/1 48/3/1 72/3/1
f 82/3/1 72/3/1 79/3/1
f 83/1/1 81/1/1 80/1/1
f 83/1/1 80/1/1 75/1/1
f 84/1/1 81/1/1 83/1/1
f 85/2/1 82/2/1 81/2/1
f 85/1/1 81/1/1 84/1/1
f 86/2/1 82/2/1 85/2/1
f 87/2/1 82/2/1 86/2/1
f 88/5/1 63/5/1 82/5/1
f 88/2/1 82/2/1 87/2/1
f 89/2/1 73/2/1 63/2/1
f 89/5/1 63/5/1 88/5/1
f 90/1/1 74/1/1 73/1/1
f 91/1/1 74/1/1 90/1/1
f 92/1/1 69/1/1 74/1/1
f 92/1/1 74/1/1 91/1/1
f 92/1/1 39/1/1 69/1/1
f 93/1/1 39/1/1 92/1/1
f 94/2/1 87/2/1 86/2/1
f 94/4/1 88/4/1 87/4/1
f 94/4/1 89/4/1 88/4/1
f 95/2/1 73/2/1 89/2/1
f 95/4/1 89/4/1 94/4/1
f 96/1/1 90/1/1 73/1/1
f 97/2/1 91/2/1 90/2/1
f 97/1/1 90/1/1 96/1/1
f 98/1/1 92/1/1 91/1/1
f 98/2/1 91/2/1 97/2/1
f 99/1/1 92/1/1 98/1/1
f 100/2/1 84/2/1 83/2/1
f 101/1/1 85/1/1 84/1/1
f 101/2/1 84/2/1 100/2/1
f 101/1/1 86/1/1 85/1/1
f 102/1/1 86/1/1 101/1/1
f 103/2/1 94/2/1 86/2/1
f 103/1/1 86/1/1 102/1/1
f 103/2/1 95/2/1 94/2/1
f 104/1/1 96/1/1 73/1/1
f 104/2/1 95/2/1 103/2/1
f 104/2/1 73/2/1 95/2/1
f 105/2/1 98/2/1 97/2/1
f 105/1/1 96/1/1 104/1/1
f 105/2/1 99/2/1 98/2/1
f 105/2/1 97/2/1 96/2/1
f 106/2/1 99/2/1 105/2/1
f 107/2/1 99/2/1 106/2/1
f 108/1/1 92/1/1 99/1/1
f 108/2/1 99/2/1 107/2/1
f 109/1/1 92/1/1 108/1/1
f 110/2/1 93/2/1 92/2/1
f 110/1/1 92/1/1 109/1/1
f 111/2/1 93/2/1 110/2/1
f 112/1/1 103/1/1 102/1/1
f 112/2/1 102/2/1 101/2/1
f 112/1/1 104/1/1 103/1/1
f 112/1/1 106/1/1 105/1/1
f 112/1/1 105/1/1 104/1/1
f 113/1/1 106/1/1 112/1/1
f 114/2/1 107/2/1 106/2/1
f 114/1/1 106/1/1 113/1/1
f 115/1/1 108/1/1 107/1/1
f 115/2/1 107/2/1 114/2/1
f 115/1/1 109/1/1 108/1/1
f 116/1/1 109/1/1 115/1/1
f 117/2/1 110/2/1 109/2/1
f 117/1/1 109/1/1 116/1/1
f 118/2/1 113/2/1 112/2/1
f 118/2/1 112/2/1 101/2/1
f 119/2/1 113/2/1 118/2/1
f 120/1/1 116/1/1 115/1/1
f 120/2/1 113/2/1 119/2/1
f 120/1/1 114/1/1 113/1/1
f 120/1/1 115/1/1 114/1/1
f 121/1/1 116/1/1 120/1/1
f 122/1/1 116/1/1 121/1/1
f 123/2/1 117/2/1 116/2/1
f 123/1/1 116/1/1 122/1/1
f 124/2/1 110/2/1 117/2/1
f 124/2/1 117/2/1 123/2/1
f 125/2/1 110/2/1 124/2/1
f 126/2/1 120/2/1 119/2/1
f 126/2/1 121/2/1 120/2/1
f 127/1/1 122/1/1 121/1/1
f 127/2/1 121/2/1 126/2/1
f 128/1/1 122/1/1 127/1/1
f 129/1/1 122/1/1 128/1/1
f 130/2/1 123/2/1 122/2/1
f 130/1/1 122/1/1 129/1/1
f 130/2/1 124/2/1 123/2/1
f 131/2/1 124/2/1 130/2/1
f 132/2/1 128/2/1 127/2/1
f 133/1/1 129/1/1 128/1/1
f 133/2/1 128/2/1 132/2/1
f 134/2/1 130/2/1 129/2/1
f 134/1/1 129/1/1 133/1/1
f 135/2/1 130/2/1 134/2/1
f 136/2/2 137/2/2 141/2/2
f 137/1/2 138/1/2 142/1/2
f 141/2/2 137/2/2 142/2/2
f 138/2/2 139/2/2 143/2/2
f 142/1/2 138/1/2 143/1/2
f 143/2/2 139/2/2 144/2/2
f 140/2/2 141/2/2 147/2/2
f 147/2/2 141/2/2 148/2/2
f 141/1/2 142/1/2 149/1/2
f 148/2/2 141/2/2 149/2/2
f 142/1/2 143/1/2 149/1/2
f 143/1/2 144/1/2 149/1/2
f 144/2/2 145/2/2 150/2/2
f 149/1/2 144/1/2 150/1/2
f 150/2/2 145/2/2 151/2/2
f 151/2/2 145/2/2 152/2/2
f 147/2/2 148/2/2 154/2/2
f 146/2/2 147/2/2 154/2/2
f 148/1/2 149/1/2 155/1/2
f 154/2/2 148/2/2 155/2/2
f 149/1/2 150/1/2 155/1/2
f 150/1/2 151/1/2 155/1/2
f 152/2/2 153/2/2 156/2/2
f 155/1/2 151/1/2 156/1/2
f 151/2/2 152/2/2 156/2/2
f 156/2/2 153/2/2 157/2/2
f 146/2/2 154/2/2 159/2/2
f 154/1/2 155/1/2 160/1/2
f 155/1/2 156/1/2 160/1/2
f 159/2/2 154/2/2 160/2/2
f 156/1/2 157/1/2 160/1/2
f 160/1/2 157/1/2 161/1/2
f 161/1/2 157/1/2 162/1/2
f 157/2/2 153/2/2 163/2/2
f 162/1/2 157/1/2 163/1/2
f 163/2/2 153/2/2 164/2/2
f 161/2/2 162/2/2 166/2/2
f 162/1/2 163/1/2 167/1/2
f 166/2/2 162/2/2 167/2/2
f 163/1/2 164/1/2 167/1/2
f 167/1/2 164/1/2 168/1/2
f 158/2/2 159/2/2 169/2/2
f 159/1/2 160/1/2 170/1/2
f 169/2/2 159/2/2 170/2/2
f 160/1/2 161/1/2 170/1/2
f 170/1/2 161/1/2 171/1/2
f 161/2/2 166/2/2 172/2/2
f 171/1/2 161/1/2 172/1/2
f 168/1/2 164/1/2 173/1/2
f 164/2/2 165/2/2 173/2/2
f 173/2/2 165/2/2 174/2/2
f 170/1/2 171/1/2 175/1/2
f 169/1/2 170/1/2 175/1/2
f 171/2/2 172/2/2 176/2/2
f 175/1/2 171/1/2 176/1/2
f 172/2/2 166/2/2 177/2/2
f 176/2/2 172/2/2 177/2/2
f 166/5/2 167/5/2 177/5/2
f 177/5/2 167/5/2 178/5/2
f 169/1/2 175/1/2 179/1/2
f 175/2/2 176/2/2 180/2/2
f 179/1/2 175/1/2 180/1/2
f 176/3/2 177/3/2 181/3/2
f 180/2/2 176/2/2 181/2/2
f 177/2/2 178/2/2 182/2/2
f 181/3/2 177/3/2 182/3/2
f 178/5/2 167/5/2 183/5/2
f 182/2/2 178/2/2 183/2/2
f 183/5/2 167/5/2 184/5/2
f 184/5/2 167/5/2 185/5/2
f 185/5/2 167/5/2 186/5/2
f 186/5/2 167/5/2 187/5/2
f 169/1/2 179/1/2 188/1/2
f 179/2/2 180/2/2 189/2/2
f 188/1/2 179/1/2 189/1/2
f 181/3/2 182/3/2 190/3/2
f 189/2/2 180/2/2 190/2/2
f 180/3/2 181/3/2 190/3/2
f 182/3/2 183/3/2 190/3/2
f 183/5/2 184/5/2 191/5/2
f 184/4/2 185/4/2 191/4/2
f 185/5/2 186/5/2 192/5/2
f 191/4/2 185/4/2 192/4/2
f 186/4/2 187/4/2 193/4/2
f 192/5/2 186/5/2 193/5/2
f 187/5/2 167/5/2 194/5/2
f 193/4/2 187/4/2 194/4/2
f 194/5/2 167/5/2 195/5/2
f 190/3/2 183/3/2 196/3/2
f 189/3/2 190/3/2 196/3/2
f 196/3/2 183/3/2 197/3/2
f 191/5/2 192/5/2 198/5/2
f 183/5/2 191/5/2 198/5/2
f 192/4/2 193/4/2 199/4/2
f 198/5/2 192/5/2 199/5/2
f 193/5/2 194/5/2 200/5/2
f 199/4/2 193/4/2 200/4/2
f 194/4/2 195/4/2 201/4/2
f 200/5/2 194/5/2 201/5/2
f 195/5/2 167/5/2 202/5/2
f 201/4/2 195/4/2 202/4/2
f 167/2/2 168/2/2 203/2/2
f 202/5/2 167/5/2 203/5/2
f 168/1/2 173/1/2 204/1/2
f 203/2/2 168/2/2 204/2/2
f 173/1/2 174/1/2 204/1/2
f 189/3/2 196/3/2 205/3/2
f 196/2/2 197/2/2 206/2/2
f 205/3/2 196/3/2 206/3/2
f 197/3/2 183/3/2 207/3/2
f 206/2/2 197/2/2 207/2/2
f 201/2/2 202/2/2 208/2/2
f 202/2/2 203/2/2 208/2/2
f 200/2/2 201/2/2 208/2/2
f 199/2/2 200/2/2 208/2/2
f 198/2/2 199/2/2 208/2/2
f 203/1/2 204/1/2 209/1/2
f 208/2/2 203/2/2 209/2/2
f 188/2/2 189/2/2 210/2/2
f 189/3/2 205/3/2 211/3/2
f 210/2/2 189/2/2 211/2/2
f 211/3/2 205/3/2 212/3/2
f 205/2/2 206/2/2 213/2/2
f 212/3/2 205/3/2 213/3/2
f 206/3/2 207/3/2 214/3/2
f 213/2/2 206/2/2 214/2/2
f 211/2/2 212/2/2 215/2/2
f 210/1/2 211/1/2 215/1/2
f 212/3/2 213/3/2 216/3/2
f 215/2/2 212/2/2 216/2/2
f 213/3/2 214/3/2 216/3/2
f 183/5/2 198/5/2 217/5/2
f 216/3/2 214/3/2 217/3/2
f 207/3/2 183/3/2 217/3/2
f 214/3/2 207/3/2 217/3/2
f 215/1/2 216/1/2 218/1/2
f 210/1/2 215/1/2 218/1/2
f 218/1/2 216/1/2 219/1/2
f 216/2/2 217/2/2 220/2/2
f 219/1/2 216/1/2 220/1/2
f 220/2/2 217/2/2 221/2/2
f 221/2/2 217/2/2 222/2/2
f 217/5/2 198/5/2 223/5/2
f 222/2/2 217/2/2 223/2/2
f 198/2/2 208/2/2 224/2/2
f 223/5/2 198/5/2 224/5/2
f 208/1/2 209/1/2 225/1/2
f 225/1/2 209/1/2 226/1/2
f 209/1/2 204/1/2 227/1/2
f 226/1/2 209/1/2 227/1/2
f 204/1/2 174/1/2 227/1/2
f 227/1/2 174/1/2 228/1/2
f 221/2/2 222/2/2 229/2/2
f 222/4/2 223/4/2 229/4/2
f 223/4/2 224/4/2 229/4/2
f 224/2/2 208/2/2 230/2/2
f 229/4/2 224/4/2 230/4/2
f 208/1/2 225/1/2 231/1/2
f 225/2/2 226/2/2 232/2/2
f 231/1/2 225/1/2 232/1/2
f 226/1/2 227/1/2 233/1/2
f 232/2/2 226/2/2 233/2/2
f 233/1/2 227/1/2 234/1/2
f 218/2/2 219/2/2 235/2/2
f 219/1/2 220/1/2 236/1/2
f 235/2/2 219/2/2 236/2/2
f 220/1/2 221/1/2 236/1/2
f 236/1/2 221/1/2 237/1/2
f 221/2/2 229/2/2 238/2/2
f 237/1/2 221/1/2 238/1/2
f 229/2/2 230/2/2 238/2/2
f 208/1/2 231/1/2 239/1/2
f 238/2/2 230/2/2 239/2/2
f 230/2/2 208/2/2 239/2/2
f 232/2/2 233/2/2 240/2/2
f 239/1/2 231/1/2 240/1/2
f 233/2/2 234/2/2 240/2/2
f 231/2/2 232/2/2 240/2/2
f 240/2/2 234/2/2 241/2/2
f 241/2/2 234/2/2 242/2/2
f 234/1/2 227/1/2 243/1/2
f 242/2/2 234/2/2 243/2/2
f 243/1/2 227/1/2 244/1/2
f 227/2/2 228/2/2 245/2/2
f 244/1/2 227/1/2 245/1/2
f 245/2/2 228/2/2 246/2/2
f 237/1/2 238/1/2 247/1/2
f 236/2/2 237/2/2 247/2/2
f 238/1/2 239/1/2 247/1/2
f 240/1/2 241/1/2 247/1/2
f 239/1/2 240/1/2 247/1/2
f 247/1/2 241/1/2 248/1/2
f 241/2/2 242/2/2 249/2/2
f 248/1/2 241/1/2 249/1/2
f 242/1/2 243/1/2 250/1/2
f 249/2/2 242/2/2 250/2/2
f 243/1/2 244/1/2 250/1/2
f 250/1/2 244/1/2 251/1/2
f 244/2/2 245/2/2 252/2/2
f 251/1/2 244/1/2 252/1/2
f 247/2/2 248/2/2 253/2/2
f 236/2/2 247/2/2 253/2/2
f 253/2/2 248/2/2 254/2/2
f 250/1/2 251/1/2 255/1/2
f 254/2/2 248/2/2 255/2/2
f 248/1/2 249/1/2 255/1/2
f 249/1/2 250/1/2 255/1/2
f 255/1/2 251/1/2 256/1/2
f 256/1/2 251/1/2 257/1/2
f 251/2/2 252/2/2 258/2/2
f 257/1/2 251/1/2 258/1/2
f 252/2/2 245/2/2 259/2/2
f 258/2/2 252/2/2 259/2/2
f 259/2/2 245/2/2 260/2/2
f 254/2/2 255/2/2 261/2/2
f 255/2/2 256/2/2 261/2/2
f 256/1/2 257/1/2 262/1/2
f 261/2/2 256/2/2 262/2/2
f 262/1/2 257/1/2 263/1/2
f 263/1/2 257/1/2 264/1/2
f 257/2/2 258/2/2 265/2/2
f 264/1/2 257/1/2 265/1/2
f 258/2/2 259/2/2 265/2/2
f 265/2/2 259/2/2 266/2/2
f 262/2/2 263/2/2 267/2/2
f 263/1/2 264/1/2 268/1/2
f 267/2/2 263/2/2 268/2/2
f 264/2/2 265/2/2 269/2/2
f 268/1/2 264/1/2 269/1/2
f 269/2/2 265/2/2 270/2/2
f 277/2/3 272/2/3 271/2/3
f 277/1/3 273/1/3 272/1/3
f 278/2/3 274/2/3 273/2/3
f 278/1/3 273/1/3 277/1/3
f 279/1/3 275/1/3 274/1/3
f 279/2/3 274/2/3 278/2/3
f 280/2/3 276/2/3 275/2/3
f 280/1/3 275/1/3 279/1/3
f 281/2/3 279/2/3 278/2/3
f 281/2/3 278/2/3 277/2/3
f 281/2/3 280/2/3 279/2/3
f 281/2/3 277/2/3 271/2/3
f 282/2/3 280/2/3 281/2/3
f 283/2/3 280/2/3 282/2/3
f 284/2/3 276/2/3 280/2/3
f 284/2/3 280/2/3 283/2/3
f 285/2/3 281/2/3 271/2/3
f 286/1/3 282/1/3 281/1/3
f 286/2/3 281/2/3 285/2/3
f 287/2/3 283/2/3 282/2/3
f 287/1/3 282/1/3 286/1/3
f 288/1/3 284/1/3 283/1/3
f 288/2/3 283/2/3 287/2/3
f 289/2/3 276/2/3 284/2/3
f 289/1/3 284/1/3 288/1/3
f 290/2/3 276/2/3 289/2/3
f 295/2/3 292/2/3 291/2/3
f 296/2/3 292/2/3 295/2/3
f 297/2/3 294/2/3 293/2/3
f 298/2/3 294/2/3 297/2/3
f 303/2/3 300/2/3 299/2/3
f 304/2/3 300/2/3 303/2/3
f 305/2/3 302/2/3 301/2/3
f 306/2/3 302/2/3 305/2/3
f 311/2/3 308/2/3 307/2/3
f 312/2/3 308/2/3 311/2/3
f 313/2/3 310/2/3 309/2/3
f 314/2/3 310/2/3 313/2/3
f 315/2/4 316/2/4 319/2/4
f 319/2/4 316/2/4 320/2/4
f 317/2/4 318/2/4 321/2/4
f 321/2/4 318/2/4 322/2/4
f 323/2/4 324/2/4 327/2/4
f 327/2/4 324/2/4 328/2/4
f 325/2/4 326/2/4 329/2/4
f 329/2/4 326/2/4 330/2/4
f 331/2/4 332/2/4 335/2/4
f 335/2/4 332/2/4 336/2/4
f 333/2/4 334/2/4 337/2/4
f 337/2/4 334/2/4 338/2/4
f 339/2/4 340/2/4 343/2/4
f 340/1/4 341/1/4 343/1/4
f 341/2/4 342/2/4 344/2/4
f 343/1/4 341/1/4 344/1/4
f 339/2/4 343/2/4 345/2/4
f 343/2/4 344/2/4 345/2/4
f 344/2/4 342/2/4 346/2/4
f 345/2/4 344/2/4 346/2/4
f 339/2/4 345/2/4 347/2/4
f 345/1/4 346/1/4 348/1/4
f 347/2/4 345/2/4 348/2/4
f 346/2/4 342/2/4 349/2/4
f 348/1/4 346/1/4 349/1/4
f 349/2/4 342/2/4 350/2/4
f 353/2/5 352/2/5 351/2/5
f 354/2/5 352/2/5 353/2/5
f 355/2/5 352/2/5 354/2/5
f 356/2/5 352/2/5 355/2/5
f 357/1/5 354/1/5 353/1/5
f 358/2/5 355/2/5 354/2/5
f 358/1/5 354/1/5 357/1/5
f 359/1/5 356/1/5 355/1/5
f 359/2/5 355/2/5 358/2/5
f 360/1/5 356/1/5 359/1/5
f 361/2/5 358/2/5 357/2/5
f 361/2/5 359/2/5 358/2/5
f 361/2/5 360/2/5 359/2/5
f 362/2/5 360/2/5 361/2/5
f 365/2/5 364/2/5 363/2/5
f 366/2/5 364/2/5 365/2/5
f 369/2/5 368/2/5 367/2/5
f 370/2/5 368/2/5 369/2/5
f 373/2/5 372/2/5 371/2/5
f 374/2/5 372/2/5 373/2/5
f 377/2/5 376/2/5 375/2/5
f 378/2/5 376/2/5 377/2/5
f 381/2/5 380/2/5 379/2/5
f 382/2/5 380/2/5 381/2/5
f 385/2/5 384/2/5 383/2/5
f 386/2/5 384/2/5 385/2/5
f 387/2/6 388/2/6 389/2/6
f 389/2/6 388/2/6 390/2/6
f 391/2/6 392/2/6 393/2/6
f 393/2/6 392/2/6 394/2/6
f 395/2/6 396/2/6 397/2/6
f 397/2/6 396/2/6 398/2/6
f 399/2/6 400/2/6 401/2/6
f 401/2/6 400/2/6 402/2/6
f 403/2/6 404/2/6 405/2/6
f 405/2/6 404/2/6 406/2/6
f 407/2/6 408/2/6 409/2/6
f 409/2/6 408/2/6 410/2/6
f 411/2/6 412/2/6 413/2/6
f 413/2/6 412/2/6 414/2/6
f 414/2/6 412/2/6 415/2/6
f 415/2/6 412/2/6 416/2/6
f 413/1/6 414/1/6 417/1/6
f 414/2/6 415/2/6 418/2/6
f 417/1/6 414/1/6 418/1/6
f 415/1/6 416/1/6 419/1/6
f 418/2/6 415/2/6 419/2/6
f 419/1/6 416/1/6 420/1/6
f 417/2/6 418/2/6 421/2/6
f 418/2/6 419/2/6 421/2/6
f 419/2/6 420/2/6 421/2/6
f 421/2/6 420/2/6 422/2/6
